<?xml version="1.0" standalone="no"?>
<!DOCTYPE svg PUBLIC "-//W3C//DTD SVG 1.1//EN" "http://www.w3.org/Graphics/SVG/1.1/DTD/svg11.dtd" >
<svg xmlns="http://www.w3.org/2000/svg" xmlns:xlink="http://www.w3.org/1999/xlink" version="1.1">
<metadata></metadata>
<defs>
<font id="cleargothicregular" horiz-adv-x="1073" >
<font-face units-per-em="2048" ascent="1638" descent="-410" />
<missing-glyph horiz-adv-x="593" />
<glyph unicode="&#xd;" horiz-adv-x="593" />
<glyph unicode=" "  horiz-adv-x="593" />
<glyph unicode="&#x09;" horiz-adv-x="593" />
<glyph unicode="&#xa0;" horiz-adv-x="593" />
<glyph unicode="!" horiz-adv-x="415" d="M92 102q0 117 131 117q61 0 97 -29.5t36 -80.5q0 -20 -11 -58.5t-53 -53.5t-79 -15q-55 0 -88 33.5t-33 86.5zM104 1475h244l-57 -1067h-135z" />
<glyph unicode="&#x22;" horiz-adv-x="636" d="M96 1004l41 471h158l-43 -471h-156zM344 1004l41 471h156l-41 -471h-156z" />
<glyph unicode="#" horiz-adv-x="1198" d="M96 459l23 102h235l74 352h-235l20 103h238l90 430h102l-92 -430h215l90 430h100l-90 -430h236l-21 -103h-235l-76 -352h236l-21 -102h-235l-93 -430h-100l90 430h-213l-92 -430h-100l90 430h-236zM455 561h215l73 352h-213z" />
<glyph unicode="$" horiz-adv-x="1005" d="M70 80v192l20 -18q98 -84 184 -116t189 -32l2 558l-74 38q-84 43 -127 71t-74 56q-57 53 -87.5 123t-30.5 142q0 104 58 195t169 145q39 18 83 29.5t83 11.5v157h90l2 -147q80 0 135.5 -9.5t132.5 -39.5l39 -15v-190l-24 20q-84 63 -149.5 90t-135.5 27v-498l74 -36 q319 -168 319 -406q0 -53 -16 -119q-29 -109 -108 -188.5t-191 -114.5q-18 -6 -44 -11t-40 -5v-183h-88v179q-94 0 -171 15t-175 58l-35 17zM293 1128q0 -119 143 -194l29 -14v434l-16 -6q-109 -43 -142 -138q-14 -41 -14 -82zM551 127q123 23 176 166q14 43 14 78 q0 117 -110 200q-27 23 -62 37l-18 8v-489z" />
<glyph unicode="%" horiz-adv-x="1617" d="M20 1094q0 172 121 292q51 49 112.5 75t127.5 26q98 0 181 -50.5t132 -144.5t49 -198q0 -102 -50 -196.5t-133 -145t-179 -50.5q-137 0 -238 101q-40 41 -73 96q-49 90 -50 195zM207 1075q0 -49 16 -102q12 -49 41 -99q43 -70 119 -69q39 0 74 22q45 33 72.5 97.5 t27.5 160.5q0 61 -2 78q-10 37 -12 54q-20 100 -86 145q-35 23 -74 22q-37 0 -69.5 -18t-56.5 -58t-37 -96.5t-13 -136.5zM420 0l661 1475h117l-661 -1475h-117zM874 379q0 176 121 293q51 49 112.5 74.5t127.5 25.5q98 0 181 -50t132 -144.5t49 -198.5q0 -102 -50 -196.5 t-133 -144.5t-179 -50q-137 0 -238 100q-44 43 -73 96q-49 90 -50 195zM1061 360q0 -20 3 -42.5t11 -59.5q16 -51 43 -98q43 -70 119 -70q39 0 74 23q45 33 72.5 97t27.5 161q0 39 -2 61.5t-12 69.5q-23 98 -86 145q-35 23 -74 23q-37 0 -69.5 -18.5t-56.5 -57.5t-37 -97.5 t-13 -136.5z" />
<glyph unicode="&#x26;" horiz-adv-x="1273" d="M68 440q0 133 74.5 240.5t217.5 177.5q6 2 35 15.5t58 19.5q-121 252 -209 461v114h751v-157q-72 20 -124 26t-169 6h-215q113 -258 216.5 -463.5t252.5 -457.5q27 47 51.5 103.5t49.5 119.5q41 113 65 227l113 -38q-8 -33 -13 -57.5t-22 -74.5q-59 -209 -170 -393 q66 -100 154 -215l37 -47l36 -47h-282l-96 143l-23 -20q-111 -104 -242 -129q-23 -6 -49 -8t-55 -2q-152 0 -267.5 88t-156.5 239q-18 66 -18 129zM276 477q0 -33 4.5 -52t16.5 -63q35 -104 107.5 -162.5t166.5 -58.5q111 0 217 82l23 21q-166 280 -301 536 q-14 -6 -28.5 -12t-28.5 -16q-86 -49 -131.5 -119t-45.5 -156z" />
<glyph unicode="'" horiz-adv-x="391" d="M96 1004l41 471h158l-43 -471h-156z" />
<glyph unicode="(" horiz-adv-x="557" d="M61 600q0 96 8.5 205.5t26.5 230.5q37 252 145.5 383.5t278.5 149.5v-144q-133 -20 -186 -168q-61 -170 -62 -581q0 -416 60 -580q53 -150 188 -170v-141q-207 23 -325 213q-133 213 -134 602z" />
<glyph unicode=")" horiz-adv-x="557" d="M37 -76q115 25 170 119q66 111 65 332q0 602 -46 811t-189 239v142q219 -20 330 -221q121 -219 120 -670q0 -449 -120 -668q-111 -203 -330 -223v139z" />
<glyph unicode="*" horiz-adv-x="743" d="M61 1071l246 105l-244 98l66 108l209 -153l-33 246h133l-32 -246l208 153l66 -108l-244 -98l246 -105l-66 -115l-215 150l37 -258h-133l37 258l-215 -150z" />
<glyph unicode="+" horiz-adv-x="1075" d="M88 678v156h373v380h155v-380h371v-158h-371v-367h-155v369h-373z" />
<glyph unicode="," horiz-adv-x="342" d="M-2 -254q74 152 74 324q0 76 -15 145h226q-43 -252 -172 -469h-113z" />
<glyph unicode="-" horiz-adv-x="593" d="M47 469v172h500v-172h-500z" />
<glyph unicode="." horiz-adv-x="358" d="M37 102q0 117 131 117q61 0 97 -29.5t36 -80.5q0 -20 -11 -58.5t-53 -53.5t-79 -15q-55 0 -88 33.5t-33 86.5z" />
<glyph unicode="/" horiz-adv-x="694" d="M2 0l582 1475h108l-586 -1475h-104z" />
<glyph unicode="0" d="M82 737q0 98 14 185q41 285 164 430q113 135 277 135q162 0 274 -133q123 -145 166 -430q14 -94 14 -197q0 -92 -12 -178q-37 -240 -121 -371q-61 -94 -149 -144t-179 -50q-111 0 -202.5 71.5t-149 188t-84.5 303.5q-12 96 -12 190zM311 739l4 -131q0 -182 39 -309 q31 -100 82 -154q43 -47 101 -47q84 0 131 89t68.5 176.5t21.5 248.5v254q0 152 -25 252q-16 70 -63 163t-131 93q-55 0 -103.5 -50t-79.5 -146q-41 -127 -41 -308z" />
<glyph unicode="1" d="M172 0v111q66 -8 126 -10.5t138 -2.5v1213q-121 -37 -225 -111l-39 -26v151l375 150h115v-1377h75q35 0 67 1t126 10v-109h-758z" />
<glyph unicode="2" d="M109 0v176l100 103q59 61 116.5 128.5t106.5 135.5q164 219 225.5 351t61.5 241q0 102 -59.5 163.5t-159.5 61.5h-41q-20 -6 -29 -8q-53 -14 -109.5 -50t-107.5 -92l-29 -32l-28 198l37 21q66 35 138 58.5t128.5 30.5t103.5 7q55 0 96 -8q129 -25 209 -121t80 -229 q0 -90 -38 -179.5t-103 -181.5q-74 -104 -215 -262q-106 -121 -250 -262l-88 -84l489 2q86 0 122 6t87 27v-201h-843z" />
<glyph unicode="3" horiz-adv-x="1071" d="M109 59v217q33 -39 67 -65q123 -98 256 -98q100 0 178 54t109 150q18 61 18 115q0 125 -93 204t-245 79l-41 -4l-18 -2l-23 -4v137l23 -2l25 -4h36q233 0 285 184q14 57 14 96q0 113 -75.5 180.5t-198.5 67.5q-55 0 -109.5 -16.5t-103.5 -44.5l-68 -48v181l60 18 q141 39 264 39q96 0 178 -23.5t143.5 -69.5t97.5 -120t36 -152q0 -156 -119 -254q-25 -20 -37 -28q-29 -16 -51.5 -27.5t-53 -23t-59.5 -19.5q66 0 150 -35q211 -98 211 -327q0 -59 -18.5 -117.5t-59.5 -116.5q-66 -96 -170.5 -146t-251.5 -50q-35 0 -55.5 2t-71.5 8 q-112 14 -229 65z" />
<glyph unicode="4" horiz-adv-x="1071" d="M74 338v160q147 240 263 478t210 499h215l-547 -990h365v576l219 313v-889h41l71 4l15 3l14 2v-168l-14 4l-13 4l-65 4h-49v-27v-56.5t2 -61.5l2 -66l4 -55l2 -35l4 -37h-248l2 37l2 35l4 57l5 64l2 63l2 53v29h-508z" />
<glyph unicode="5" d="M131 45v201q31 -33 68 -62q59 -43 118.5 -63.5t118.5 -20.5q100 0 175 58.5t106 163.5q25 84 24 163q0 70 -20 138q-27 78 -87.5 121.5t-141.5 43.5q-94 0 -185 -65l-37 -33l-104 39l16 746h594l66 6l14 4l16 4v-195h-571v-456l39 22q121 57 235 58q145 0 250 -90.5 t133 -247.5q8 -51 9.5 -67.5t1.5 -35.5q0 -217 -148.5 -353t-390.5 -136q-20 0 -44 2t-38 2q-55 0 -99 11t-118 42z" />
<glyph unicode="6" d="M98 567q0 123 30 258.5t93 288.5q80 190 226.5 283.5t336.5 93.5l56 -8l16 -2l18 -4v-162l-38 24q-57 33 -123 33q-117 0 -207 -104q-100 -117 -146 -338q-6 -31 -10 -61.5t-4 -63.5q25 29 39 39q109 96 238 96q94 0 171.5 -53t123 -158.5t45.5 -236.5q0 -236 -125 -375 q-117 -131 -301 -131t-308 153q-131 164 -131 428zM338 604q0 -57 4 -114.5t10 -104.5q18 -109 42 -163t64 -88t87 -34q86 0 137 93q16 29 27.5 66.5t17.5 86.5t8 107.5t2 85.5q0 63 -6 93t-24 73q-47 104 -156 104q-70 0 -137 -55q-27 -23 -43.5 -41t-30.5 -45l-2 -33v-31z " />
<glyph unicode="7" d="M115 1266v209h813v-129l-45 -129q-203 -602 -265.5 -810t-103.5 -407h-276q98 166 161.5 313.5t208.5 538.5l164 446h-350q-74 0 -134.5 -5t-119.5 -17z" />
<glyph unicode="8" d="M96 377q0 104 58.5 198.5t171.5 157.5l55 27l-37 26q-190 147 -190 340q0 158 133 273q51 45 121.5 67.5t154.5 22.5q53 0 99 -14q115 -31 181 -116t66 -194q0 -98 -59 -183t-150 -128l-32 -16l39 -25q133 -88 202.5 -196.5t69.5 -223.5q0 -156 -125 -282 q-76 -80 -182 -107q-29 -8 -78 -14t-78 -6q-170 0 -280 100q-68 59 -104 136t-36 157zM256 387q0 -86 40 -151.5t112 -104.5q27 -16 59.5 -24.5t44.5 -10.5t37 -2q96 0 160.5 62.5t76.5 171.5q2 10 2 32q0 10 -4 35q-10 78 -54 131.5t-161 118.5l-100 57l-18 9l-43 -31 q-84 -70 -118 -137.5t-34 -155.5zM346 1176q0 -45 18.5 -91.5t53.5 -82t123 -93.5l39 -22l36 20q137 92 150 223q2 12 2 35q0 100 -59.5 162t-149.5 62q-27 0 -55 -7q-70 -14 -114 -72.5t-44 -133.5z" />
<glyph unicode="9" d="M104 977q0 74 15 143q6 27 15 56.5t24 64.5q55 121 153.5 185.5t214.5 64.5q49 0 101.5 -14.5t95.5 -44.5q115 -76 175 -213.5t60 -350.5q0 -66 -6 -139q-33 -354 -213 -555q-170 -188 -420 -188q-43 0 -90 6l-20 4l-16 2v160l36 -23q59 -33 127 -33q117 0 205 105 q96 115 141 336q14 57 15 123l-41 -41q-102 -90 -230 -90q-100 0 -180 54t-121 155.5t-41 232.5zM322 1001q0 -59 8 -127.5t26 -107.5q45 -102 156 -102q74 0 141 55q50 43 70 86l2 35l2 32l-2 72q0 37 -4 74t-10 74q-29 156 -78 218t-123 62q-78 0 -129 -88 q-59 -100 -59 -283z" />
<glyph unicode=":" horiz-adv-x="382" d="M61 102q0 117 132 117q61 0 97 -29.5t36 -80.5q0 -20 -11.5 -58.5t-53.5 -53.5t-79 -15q-55 0 -88 33.5t-33 86.5zM61 752q0 117 132 116q61 0 97 -29.5t36 -80.5q0 -20 -11.5 -58t-53.5 -53.5t-79 -15.5q-55 0 -88 34t-33 87z" />
<glyph unicode=";" horiz-adv-x="391" d="M29 -254q74 152 73 324q0 76 -14 145h225q-43 -252 -172 -469h-112zM70 752q0 117 131 116q61 0 97 -29.5t36 -80.5q0 -20 -11.5 -58t-53.5 -53.5t-79 -15.5q-55 0 -87.5 34t-32.5 87z" />
<glyph unicode="&#x3c;" horiz-adv-x="1054" d="M96 737l862 486v-179l-567 -307l567 -307v-178z" />
<glyph unicode="=" horiz-adv-x="1071" d="M92 553v154h887v-154h-887zM92 836v157h887v-157h-887z" />
<glyph unicode="&#x3e;" horiz-adv-x="1054" d="M96 252v178l568 307l-568 307v179l862 -486z" />
<glyph unicode="?" horiz-adv-x="835" d="M-4 1366l22 16q59 41 122 66t117 34t116 9q184 0 301 -94q70 -55 105.5 -132t35.5 -163q0 -90 -42 -172t-122 -133q-51 -37 -114 -56q-27 -8 -56.5 -14t-54.5 -6v-313h-139v466l51 -2q115 0 183.5 67t68.5 173q0 29 -6 64q-12 68 -61.5 119t-121.5 71q-31 8 -67 8 q-78 0 -138.5 -42t-84.5 -111zM223 102q0 117 131 117q133 0 133 -113q0 -29 -10 -61.5t-53 -47.5t-80 -15q-55 0 -88 33.5t-33 86.5z" />
<glyph unicode="@" horiz-adv-x="1593" d="M119 788q0 113 39 216.5t106 195.5q94 127 225.5 206t278.5 95q25 4 50.5 4h39.5q274 0 450.5 -178t176.5 -455q0 -33 -2 -66.5t-8 -66.5q-33 -190 -128.5 -307t-207.5 -133q-12 -2 -35 -2q-80 0 -131 51t-43 123q-10 -37 -41 -74q-72 -84 -166 -84q-55 0 -102 23 q-78 35 -118 125t-40 239l8 72q31 195 137 318q51 61 107.5 89.5t113.5 28.5q121 0 179 -108l10 -21l18 117l101 -2l-78 -440l-29 -179q-4 -25 -4 -63q0 -39 8 -63q20 -63 84 -64q14 0 36 7t48.5 28.5t63.5 65.5t64.5 113t41.5 161q8 51 8 112q0 238 -144 386.5t-372 148.5 q-23 0 -51.5 -3t-44.5 -5q-225 -33 -376.5 -219.5t-151.5 -446.5v-47q4 -23 7 -54.5t3 -33.5q2 -12 14 -57q55 -223 214 -350.5t364 -127.5q88 0 169 23t167 76q49 29 100 74q66 55 111 116l41 -73l-52 -60q-119 -125 -256 -186.5t-288 -61.5q-313 0 -514 231.5t-201 585.5z M582 596q0 -39 7 -69.5t19 -57.5q35 -74 117 -74q55 0 94 39q31 31 49.5 62.5t46.5 113.5q18 55 37 154l4 20l15 86q4 23 4 44.5v31.5q0 31 -2 45q-10 59 -47 92t-88 33q-31 0 -54 -10q-55 -23 -92 -73t-71 -154l-27 -101q-8 -49 -10 -92t-2 -90z" />
<glyph unicode="A" horiz-adv-x="1224" d="M-10 0l16 37l14 35l21 51l29 67l28 76l17 43l381 1096l-9 70h226l401 -1164l16 -47l27 -71l27 -66l20 -55l17 -35l14 -37h-283l-8 35l-8 37l-16 57l-17 64q-10 33 -18 62.5t-19 55.5l-53 154h-506l-57 -154l-37 -118l-18 -64l-15 -57l-8 -37l-8 -35h-174zM346 586h430 l-213 639z" />
<glyph unicode="B" horiz-adv-x="1200" d="M131 0l2 35l4 37l2 61l4 60v55l2 61v39v815v66l-2 53l-2 55l-4 66l-2 39l-4 33h504q129 0 215 -30t147 -95q45 -45 65.5 -101.5t20.5 -118.5q0 -78 -34.5 -148.5t-102.5 -117.5q-41 -29 -82 -45t-71.5 -23.5t-57.5 -7.5q47 -4 68.5 -9t76 -22.5t109.5 -51.5 q72 -45 112 -123t40 -170q0 -94 -43 -179.5t-127 -146.5q-59 -43 -136 -64.5t-186 -21.5h-518zM365 123h229q252 0 305 201q16 61 16 112q0 133 -95 208t-271 75h-184v-596zM365 840h153q143 0 223 44t107 130q8 23 12 52.5t4 53.5q0 111 -82 174.5t-233 63.5l-184 -2v-516z " />
<glyph unicode="C" horiz-adv-x="1181" d="M66 702q0 115 26 230q61 262 242.5 410.5t439.5 148.5q55 0 134 -9.5t188 -54.5v-231l-47 55q-119 119 -285 119q-102 0 -196.5 -50t-157.5 -149q-49 -72 -75 -178t-26 -241q0 -84 13 -177l30 -139q47 -158 155.5 -242.5t250.5 -84.5q147 0 289 104l57 49l74 -88l-39 -35 q-76 -61 -160 -99t-174 -50q-47 -6 -92 -6q-272 0 -457 198q-190 205 -190 520z" />
<glyph unicode="D" horiz-adv-x="1259" d="M131 0l2 35l4 37l4 67l2 54v26l2 90v33v821v62l-2 57l-2 55l-2 66l-4 37l-2 35h399q315 0 486.5 -187.5t171.5 -542.5q0 -369 -167 -557t-464 -188h-428zM367 127h211q188 0 280 137q102 152 103 477q0 326 -106.5 468.5t-328.5 142.5h-159v-1225z" />
<glyph unicode="E" horiz-adv-x="1046" d="M131 0l2 37l4 35l2 55l4 66l2 118v852v62l-2 57l-2 55l-4 64l-2 39l-2 35h834v-138l-62 4l-61 2l-213 9h-266v-533h204l172 6l58 4l49 7v-156l-43 4l-66 6q-41 0 -96 4t-74 4h-202v-569h325l187 6l59 2l59 6v-143h-866z" />
<glyph unicode="F" horiz-adv-x="948" d="M131 0l2 37l2 35l4 55l2 66l2 67v51v852v64l-2 55l-2 55l-2 66l-2 37l-2 35h828v-138l-60 4l-61 5q-80 0 -122 2t-79 4h-274v-537h210q76 0 166 8l62 6l43 5v-158l-53 6l-54 4q-57 6 -95 8t-71 2h-211v-385l3 -51v-67l2 -64l4 -55v-37l2 -37h-242z" />
<glyph unicode="G" horiz-adv-x="1335" d="M68 684q0 106 24 227q55 264 247.5 423t453.5 159q150 0 303 -57l53 -23v-233q-86 145 -275 186q-12 4 -42.5 7t-59.5 3q-176 0 -301 -129t-154 -358q-12 -109 -12 -197q0 -227 72 -366.5t196 -192.5q92 -39 183 -39q139 0 225 82v273l-2 67v51l-2 54l-4 65l-4 39l-2 33 h245l-4 -37l-2 -35l-2 -49l-4 -70l-2 -71v-25v-80v-14l2 -60l4 -67l4 -53l2 -33l4 -39q-150 -102 -315 -129q-78 -14 -160 -14q-295 0 -483 194.5t-188 507.5z" />
<glyph unicode="H" horiz-adv-x="1323" d="M131 1475h248l-2 -33l-2 -39l-4 -66l-2 -53l-2 -45v-74v-331h589v331v74l-2 45l-2 51l-4 68l-2 41l-2 31h248l-4 -37l-2 -35l-2 -49l-4 -70l-2 -78v-41v-856v-63l2 -53l2 -58l4 -63l2 -37l2 -35h-246l2 37l2 35l2 53l4 68l2 73v45v391h-589v-391v-43l2 -75l4 -70l2 -51 l2 -35l2 -37h-246l2 35l2 37l4 63l2 58l2 53v63v856v41l-2 78l-4 70l-2 49l-4 35z" />
<glyph unicode="I" horiz-adv-x="507" d="M131 1475h246l-2 -31l-2 -43l-4 -72l-2 -49v-35v-82v-852v-47l2 -71l2 -68l2 -53l2 -35l2 -37h-244l2 39l2 35l2 47l2 72l2 79v39v29v823l-2 54v65l-2 59l-4 60l-2 39z" />
<glyph unicode="J" horiz-adv-x="595" d="M-20 33v188l22 -28q27 -31 72 -48q25 -8 49 -8q84 0 100 84q6 29 6 84v858v23l-4 96l-2 76l-2 45l-2 33l-2 39h248l-2 -35l-4 -37l-2 -60l-4 -59l-2 -65v-54v-897q0 -135 -68 -213t-190 -78q-82 0 -179 39z" />
<glyph unicode="K" horiz-adv-x="1204" d="M131 0l4 35l2 37l4 61l4 57l2 119v856l-2 119l-4 64l-4 55l-2 35l-4 37h254l-2 -35l-4 -37l-4 -60l-2 -59l-2 -61v-58v-368l295 368l61 78l33 41l12 19l74 102l51 70h201l-37 -39l-29 -31l-106 -121l-101 -117l-145 -186l362 -670l11 -18l61 -100l45 -74l29 -47l22 -33 l25 -39h-291l-8 20l-25 52q-37 82 -58.5 127t-59.5 112l-263 467l-159 -192v-275l2 -71v-47l2 -54l4 -67l2 -39l2 -33h-252z" />
<glyph unicode="L" horiz-adv-x="942" d="M131 0l2 39l2 33l2 49l4 72l2 83v35v854v64v53l-2 57l-4 64l-2 37l-2 35h246l-2 -39l-2 -33l-2 -47l-4 -72l-4 -100v-19v-1036h294l197 6l55 4l52 4v-143h-832z" />
<glyph unicode="M" horiz-adv-x="1703" d="M82 0l4 37l6 35l6 57l6 64l7 65l4 53l49 852l6 119v59v60v39l-2 35h248l442 -1033l430 1033h246v-35v-37v-60l2 -61l2 -63l2 -56l51 -852l4 -53l7 -65l12 -121l2 -17l6 -55h-248v35v39v57l-2 62l-2 61l-2 57l-53 906l-443 -1057h-129l-450 1046l-51 -895l-2 -57l-2 -61 l-2 -60v-59v-39v-35h-154z" />
<glyph unicode="N" horiz-adv-x="1312" d="M131 0l2 37l2 37l4 53l2 66l2 67v51v852v58l-2 61l-2 59l-2 62l-2 35l-2 37h199l706 -1137v827v58l-2 61l-2 62l-4 59l-2 35l-2 35h156l-4 -37l-2 -33l-2 -51l-3 -70l-2 -80l-2 -39v-854l2 -65v-53l2 -58l5 -63l2 -37l2 -35h-181l-727 1171v-860v-51l2 -67l2 -66l3 -55 l4 -35l2 -37h-154z" />
<glyph unicode="O" horiz-adv-x="1323" d="M70 737q0 365 157 566q151 192 417 192h3q80 0 166 -18q176 -37 292 -186.5t140 -397.5q8 -90 9 -116.5t1 -57.5q0 -309 -125 -500q-117 -178 -317 -221q-86 -18 -166 -18q-268 0 -420 192q-157 198 -157 565zM307 737q0 -342 94 -497q86 -143 261 -144q174 0 260 144 q94 156 94 497q0 342 -94 498q-86 143 -260 143t-261 -143q-94 -156 -94 -498z" />
<glyph unicode="P" horiz-adv-x="1071" d="M131 0l4 37l2 35l2 49l4 69l4 84v35v856v70l-2 49l-8 119l-2 39l-4 33h395q250 0 391.5 -90.5t169.5 -247.5q8 -41 9 -93q0 -188 -154 -299.5t-438 -111.5h-135v-322l2 -63v-55l4 -60l4 -61l2 -37l2 -35h-252zM369 762h112q389 0 389 278q0 145 -90 226q-96 86 -280 86 h-131v-590z" />
<glyph unicode="Q" horiz-adv-x="1318" d="M70 737q0 365 157 566q151 192 417 192h3q80 0 166 -18q203 -43 317 -224q123 -195 123 -516q0 -260 -74.5 -427t-205.5 -238l-10 -6l-13 -7l27 -6l29 -6q43 -8 103 -11t134 -3l-76 -178q-176 57 -385 106l-112 25l-58 4q-258 0 -397 186q-145 195 -145 561zM307 725 l29 -215q27 -223 103.5 -318.5t222.5 -95.5q174 0 260 144q94 156 94 497q0 342 -94 498q-86 143 -260 143q-162 0 -252 -116q-100 -129 -101 -396q0 -16 -1 -32.5t-1 -32.5v-64v-12z" />
<glyph unicode="R" horiz-adv-x="1175" d="M131 0l4 37l2 35l4 55l2 66l4 116v854v60l-2 59l-2 55l-4 64l-4 41l-2 33h481q227 0 360.5 -109t133.5 -274q0 -72 -29 -152q-35 -90 -120 -155.5t-224 -96.5l-69 -10l272 -369l94 -116l12 -17l80 -104l15 -19l43 -53h-289l-47 72l-78 121l-88 118l-254 340h-59v-340v-61 l2 -57l2 -58l2 -63l4 -37l2 -35h-248zM367 774l51 -2q203 0 304 51t134 154q18 55 18 106q0 123 -100 195t-287 72h-120v-576z" />
<glyph unicode="S" horiz-adv-x="1005" d="M70 80v192l22 -20q88 -74 179 -112t173 -38q84 0 152 36t103.5 96.5t35.5 130.5q0 111 -82 184q-20 18 -43.5 34.5t-60.5 37.5l-47 26l-111 55q-82 41 -125 69t-78 58q-59 55 -87.5 123t-28.5 142q0 102 58 194t174 147.5t245 55.5q125 0 276 -55l27 -9l12 -6v-190 l-63 49q-68 47 -134.5 69.5t-127.5 22.5q-94 0 -160 -47t-86 -129q-10 -41 -10 -66q0 -117 174 -210l30 -17l142 -69q76 -39 121 -69t79 -63q59 -57 88 -130.5t29 -153.5q0 -117 -61.5 -220.5t-172 -158.5t-263.5 -55h-33q-14 0 -31.5 2t-26.5 2q-53 6 -111.5 22.5 t-131.5 48.5l-33 15z" />
<glyph unicode="T" horiz-adv-x="841" d="M-70 1327v148h981v-148l-43 4l-63 6l-135 9h-140v-1035v-28l5 -90l4 -74l2 -47l2 -33l4 -39h-252l2 39l4 33l2 47l4 74l2 90l2 28v1035h-141l-133 -9l-64 -6z" />
<glyph unicode="U" horiz-adv-x="1308" d="M131 1475h254l-2 -33l-4 -39l-4 -64l-2 -55v-51l-2 -68l-2 -706q0 -188 73.5 -272.5t241.5 -84.5q182 0 268 80t86 242v741l-2 35l-2 84l-4 70l-4 49l-2 35l-4 37h158l-2 -35l-2 -37l-5 -60l-2 -59l-2 -65v-54v-735q0 -209 -120.5 -329.5t-352.5 -120.5q-41 0 -96 6 t-109 16q-164 33 -252 143.5t-88 286.5l3 733v23l-7 96l-2 72l-4 47l-2 33z" />
<glyph unicode="V" horiz-adv-x="1028" d="M-88 1475h268l8 -33l11 -39l18 -70l16 -51l17 -51l22 -68l301 -872l293 872l19 56l20 63l17 61l16 60l10 35l10 37h158l-16 -37l-13 -35l-22 -55l-23 -66l-24 -68l-19 -51l-362 -1067l37 -96h-234l-405 1163l-45 119l-25 66l-22 53l-17 39z" />
<glyph unicode="W" horiz-adv-x="1755" d="M-70 1475h256l7 -37l8 -39l14 -60l14 -59l15 -61l14 -58l227 -825l328 1042l-29 97h230l342 -1147l235 833l17 58l16 61l16 63l13 56l8 37l8 39h156l-25 -74l-22 -68l-17 -53l-20 -59l-17 -60l-303 -1059l29 -102h-229l-347 1151l-327 -1049l26 -102h-227l-315 1161 l-37 119l-19 61l-20 58l-14 45z" />
<glyph unicode="X" horiz-adv-x="1224" d="M-16 0l26 33l29 39l47 63l41 58l41 57l43 59l295 430l-260 422l-76 119l-43 66l-37 55l-49 74h289l20 -39l19 -35l65 -121l35 -63l33 -56l141 -231l152 233l36 58l39 61l41 66l33 53l21 35l22 39h193l-56 -74l-57 -76l-31 -43l-39 -55l-43 -64l-237 -346l309 -508 l78 -116l45 -68l39 -53l24 -35l29 -37h-291l-16 31l-23 41l-39 71l-28 50l-23 34l-49 82l-192 314l-209 -314l-52 -76l-26 -40l-37 -58l-39 -63l-22 -37l-21 -35h-190z" />
<glyph unicode="Y" horiz-adv-x="997" d="M-117 1475h283l14 -29l23 -43l37 -72l26 -49l70 -117l211 -370l219 370l59 101l11 18l26 45l39 74l23 45l14 27h176l-27 -39l-20 -33l-31 -47l-47 -74l-65 -100l-11 -19l-305 -510v-342v-57l2 -61l2 -60l2 -61l2 -35l2 -37h-245l2 39l2 35l2 49l4 70l2 83v35v336 l-301 516l-14 25l-60 94l-45 70l-33 49l-22 35z" />
<glyph unicode="Z" horiz-adv-x="1097" d="M-2 0l770 1346h-414q-154 0 -282 -39v168h1005l-768 -1346h406q197 0 354 43v-172h-1071z" />
<glyph unicode="[" horiz-adv-x="491" d="M131 -217l2 1786h320v-142h-127q0 -172 -2 -278q-8 -430 -9 -473q0 -176 5.5 -443.5t5.5 -310.5h125v-139h-320z" />
<glyph unicode="\" horiz-adv-x="608" d="M96 1475h156l260 -1475h-158z" />
<glyph unicode="]" horiz-adv-x="491" d="M39 -76h127q0 123 6 375t6 377q0 188 -2 282q-10 469 -10 472h-125v139h319l-10 -447q0 -311 5 -790t5 -549h-321v141z" />
<glyph unicode="^" horiz-adv-x="1165" d="M96 348l486 862l487 -862h-178l-309 567l-308 -567h-178z" />
<glyph unicode="_" horiz-adv-x="929" d="M96 0h738v-61h-738v61z" />
<glyph unicode="`" horiz-adv-x="522" d="M8 1452h174l35 -76q59 -123 141 -235h-106z" />
<glyph unicode="a" horiz-adv-x="1044" d="M76 283q0 127 94 213q104 96 352 180l80 26l49 15l47 14v37q0 78 -73.5 133t-188.5 55q-82 0 -170 -34l-51 -23l-25 -12l-20 -13v164q59 12 95 17.5t81 5.5q279 0 415 -76t136 -215v-532q0 -131 33 -238h-215q-10 31 -13.5 52.5t0.5 49.5l-24 -18q-59 -43 -112.5 -66.5 t-88.5 -28.5t-54.5 -5h-29.5q-143 0 -230 83t-87 216zM268 299q0 -113 94 -164q51 -26 107 -26h4q16 0 37.5 3t62.5 13t89 45l38 31v434l-90 -35l-63 -27l-49 -20l-62 -31q-47 -27 -69.5 -43t-42.5 -41q-55 -57 -56 -139z" />
<glyph unicode="b" horiz-adv-x="1069" d="M117 37q23 66 31 121t8 147v856l-2 56v63l-4 61l-3 60l-2 39l-2 35h211v-537l47 45q100 80 224 80q109 0 196.5 -60.5t132.5 -176t45 -275.5q0 -221 -89 -363.5t-234 -185.5q-27 -8 -69 -14t-68 -6q-158 0 -263 100l-92 -88zM354 319q0 -68 17.5 -118.5t64.5 -83.5 t107 -33q31 0 49 4q8 2 31 12q66 29 106.5 104t54.5 214q6 66 7 125q0 102 -20.5 196.5t-75 142.5t-130.5 48q-55 0 -119 -35q-29 -16 -52 -36.5t-40 -43.5v-496z" />
<glyph unicode="c" horiz-adv-x="890" d="M70 496q0 250 156.5 406.5t396.5 156.5q51 0 90 -4t90 -19l33 -8v-164l-43 31q-43 29 -86 41t-93 12q-113 0 -201.5 -77.5t-121.5 -219.5q-16 -72 -17 -139q0 -102 38 -200.5t111 -150.5t165 -52q100 0 196 67q29 18 50 43l61 -94l-27 -21q-68 -49 -125 -74.5t-120 -35.5 q-20 -4 -47 -6t-50 -2q-203 0 -329.5 139t-126.5 371z" />
<glyph unicode="d" horiz-adv-x="1052" d="M70 487q0 78 14 148t43 139q57 137 160.5 212t220.5 75q119 0 203 -78v180v29l-2 90l-4 70l-3 49v35l-2 39h209v-1166v-65l2 -51l2 -56l2 -65l5 -39l2 -33h-207v90l-39 -33q-101 -77 -216 -77h-3q-102 0 -188.5 56t-137.5 165q-61 127 -61 286zM272 489q0 -184 72 -288 q66 -96 170 -97q111 0 184 103l13 16v641l-29 27q-66 57 -143 57q-117 0 -195 -123q-25 -41 -39 -84t-23.5 -112.5t-9.5 -139.5z" />
<glyph unicode="e" horiz-adv-x="980" d="M70 520q0 264 137 408q66 68 146.5 101.5t166.5 33.5q98 0 184.5 -44t135.5 -126q12 -25 18 -37q18 -37 29.5 -68.5t13.5 -42.5q10 -36 10 -73l-622 -252q10 -61 39 -123q47 -98 119.5 -149.5t160.5 -51.5q125 0 234 103l24 24l64 -82l-29 -28q-117 -100 -256 -123 q-20 -4 -46 -6t-48 -2q-209 0 -342 141q-139 147 -139 397zM268 547l2 -31l385 160q45 20 45 78q0 61 -56 131.5t-140 70.5q-53 0 -100.5 -29.5t-80 -87t-44 -124t-11.5 -168.5z" />
<glyph unicode="f" horiz-adv-x="567" d="M0 946v94h162v56q0 180 120.5 288.5t309.5 108.5q55 -6 100 -20l33 -11v-166l-39 35q-39 29 -92 43q-29 6 -53 6q-84 0 -139.5 -57t-55.5 -145q0 -25 8 -66l21 -72h276v-94h-291v-637v-63l2 -53l3 -56l4 -65l4 -39l2 -33h-230l2 33l5 39l4 65l2 56l2 116v637h-160z" />
<glyph unicode="g" horiz-adv-x="1056" d="M68 489q0 74 20 170q43 188 164 297t270 109q117 0 232 -72l39 -28l77 75l64 -41q-18 -61 -22.5 -109t-4.5 -179v-219l6 -404l7 -147l2 -25q0 -154 -111 -245t-322 -91q-49 0 -108 6q-166 18 -301 90l37 148l43 -33q133 -88 237 -100q43 -6 78 -6q127 0 185.5 72.5 t58.5 222.5l-4 59l-6 61l-33 -30q-49 -43 -105.5 -63.5t-117.5 -20.5q-111 0 -204 67.5t-137 184t-44 251.5zM266 485q0 -119 28 -198.5t80 -131t132 -51.5q49 0 96 24t78 67l29 55v620l-29 25q-78 61 -158 61q-129 0 -190 -131q-25 -49 -37 -100q-29 -127 -29 -240z" />
<glyph unicode="h" horiz-adv-x="1118" d="M131 0l4 35l2 37l4 61l4 60l2 116v856v60l-2 59l-2 55l-4 64l-4 37l-2 35h215v-551l23 22q94 82 194 105q23 6 47.5 8t53.5 2q139 0 223 -90t84 -236v-424v-78l2 -40l6 -121l4 -41l2 -31h-227l2 37l2 35l2 49l4 72l2 83l2 33v418l-6 64q-10 61 -62.5 99t-127.5 38 q-70 0 -140 -39q-33 -18 -65 -47l-25 -25v-508v-59l2 -60l2 -57l2 -61l2 -37l2 -35h-227z" />
<glyph unicode="i" horiz-adv-x="495" d="M117 1298q0 117 121 117q29 0 46 -4t25 -6q43 -10 57.5 -48t14.5 -67q0 -49 -36 -78.5t-97 -29.5h-2q-129 0 -129 116zM129 0l4 35l4 37l8 118l2 119l3 434v48l-11 190l-4 27l-4 32h219v-731v-82v-34l2 -52l4 -69l4 -41l2 -31h-233z" />
<glyph unicode="j" horiz-adv-x="495" d="M-90 -223q25 -33 60.5 -52.5t70.5 -19.5q78 0 98 76q6 23 8.5 37t2.5 51v864v35v27v22q0 39 -2.5 75t-8.5 79l-4 37l-4 32h217v-1118q0 -342 -260 -342h-25q-10 0 -54 5t-99 30v162zM117 1298q0 117 123 117q29 0 46 -4t25 -6q41 -10 56.5 -46t15.5 -69q0 -51 -37 -79.5 t-98 -28.5h-2q-129 0 -129 116z" />
<glyph unicode="k" horiz-adv-x="1011" d="M131 0l4 37l4 35l4 59l2 62l5 118v854v31v27q0 43 -2.5 87t-8.5 93l-4 37l-4 35h219l-2 -791q39 59 82 104q258 281 500 281v-147l-90 -13q-133 -31 -234 -125l246 -475l8 -16l62 -103l45 -75l26 -43l19 -33l26 -39h-241l-344 639q-59 -59 -105 -139v-191v-59l2 -57 l2 -60l4 -61l2 -37l4 -35h-231z" />
<glyph unicode="l" horiz-adv-x="487" d="M131 0l2 37l2 35l4 59l2 62l2 116l2 10v844v70l-2 49l-2 53l-4 66l-2 41l-4 33h213v-1166v-43l2 -73l2 -68l4 -53l2 -35l2 -37h-225z" />
<glyph unicode="m" horiz-adv-x="1615" d="M131 0l2 35l4 37l2 61l4 60l2 116v-14v436v51l-2 68l-4 63l-2 56l-4 35l-2 36h213v-86l53 39q55 35 113.5 51.5t116.5 16.5q170 0 247 -117q61 53 140.5 85t161.5 32q117 0 196.5 -59.5t93.5 -155.5l7 -88v-447v-45l2 -73l4 -70l2 -51l2 -35l2 -37h-228l3 37l2 35l4 51 l2 70l4 81v37v428l-2 58q-6 57 -53.5 94t-118.5 37q-53 0 -106.5 -23.5t-86.5 -56.5v-537v-75v-43l2 -54l4 -67l2 -39l2 -33h-223l2 35l4 37l4 63l3 58l2 57v59v469l-5 51q-6 43 -50 73t-107 30q-51 0 -111 -25q-35 -16 -52 -26.5t-38 -28.5v-543v-59l2 -57l2 -60l4 -61 l2 -37l2 -35h-225z" />
<glyph unicode="n" horiz-adv-x="1122" d="M131 0l4 51l6 74l9 186v428l-7 191l-2 53l-6 57h215v-125l21 21l55 45q100 74 205 74q33 0 69 -6q139 -20 207 -99.5t68 -222.5v-418q0 -27 4 -100.5t4 -93.5l4 -62l4 -53h-231l4 45l4 74l8 184v424q0 92 -35.5 136t-122.5 59q-23 2 -32 2q-18 2 -33 0q-57 -6 -97 -29 t-85 -78l-21 -24v-482q0 -94 3 -158.5t9 -152.5h-231z" />
<glyph unicode="o" horiz-adv-x="1040" d="M70 518q0 227 104.5 368.5t271.5 164.5q37 6 74 6q199 0 325 -144.5t126 -394.5t-127 -396.5t-326 -146.5q-35 0 -72 7q-168 25 -272 167t-104 369zM281 518q0 -135 16 -206.5t57 -129.5q68 -94 168 -94q102 0 166 94q35 53 51.5 102.5t16.5 129.5q0 184 -13.5 281.5 t-54.5 156.5q-66 92 -168 92q-100 0 -166 -92q-39 -53 -56 -130t-17 -204z" />
<glyph unicode="p" horiz-adv-x="1056" d="M131 1040h207l4 -86l43 39q43 33 101.5 51.5t115.5 18.5q162 0 274.5 -137.5t112.5 -352.5q0 -98 -22 -188q-16 -78 -45 -137q-55 -125 -154.5 -193.5t-210.5 -68.5q-117 0 -211 75v-151v-41l2 -78l2 -72l2 -49l2 -37l2 -39h-223l4 35l2 41l2 66l2 55l4 119v-41v862v31 v26q0 43 -2 89.5t-8 91.5l-2 37zM346 193q12 -20 31 -37q63 -57 139 -58q55 0 108.5 32t86 85t52 130t19.5 181q0 102 -13 173t-40 116q-72 127 -188 127q-90 0 -164 -80l-29 -43z" />
<glyph unicode="q" horiz-adv-x="1087" d="M68 467q0 74 16 168q31 160 111.5 265.5t197.5 141.5q74 23 139 23q156 0 267 -100l90 84l67 -39q-23 -55 -30.5 -102.5t-7.5 -125.5v-884l2 -48v-71l2 -72l2 -47l2 -25l2 -30h-228l5 30l2 25l8 119l4 90v29v211l-21 -19q-122 -110 -245 -110h-2q-43 0 -91 12 q-127 31 -206 151q-86 131 -86 324zM281 504q0 -125 34 -234q23 -76 73 -114.5t118 -38.5q70 0 141 49q43 29 72 67v506q0 27 -4 52.5t-10 50.5q-20 57 -66.5 91t-106.5 34q-41 0 -81 -19q-78 -33 -121 -137q-49 -117 -49 -307z" />
<glyph unicode="r" horiz-adv-x="632" d="M131 1040h207q12 -31 16 -63.5t4 -71.5q18 43 45 70q78 86 218 86h22v-172l-16 2l-23 4q-20 2 -31 2q-98 0 -155.5 -63.5t-57.5 -182.5v-342l2 -65v-51l3 -58l4 -63l2 -37l4 -35h-228l5 37l2 35l2 53l4 68l2 71v45v482q0 86 -6.5 138t-24.5 111z" />
<glyph unicode="s" horiz-adv-x="862" d="M57 61l4 177q27 -23 33 -27q14 -12 37 -25q66 -43 134.5 -64.5t127.5 -21.5q82 0 138.5 37t70.5 96q6 23 6 41q0 76 -110 134l-35 16l-74 33l-61 26q-59 29 -94 49.5t-60 38.5q-88 72 -88 185q0 139 129 231q106 74 262 74q102 0 215 -29l47 -12l4 -176l-61 39 q-121 65 -220 65h-3q-61 0 -102.5 -25.5t-59.5 -68.5l-8 -29q-2 -8 -2 -24q0 -43 28.5 -75t100.5 -69l39 -18l82 -33q270 -111 270 -297q0 -29 -2 -45t-12 -49q-29 -100 -133.5 -165.5t-264.5 -65.5h-55q-39 6 -57 8q-82 12 -160 43z" />
<glyph unicode="t" horiz-adv-x="557" d="M-10 940v100h170l-2 29v119l-2 37l-4 82l-2 36l-3 35h209v-338h211v-102h-211v-668l4 -53q0 -55 27 -84t74 -29q35 0 69.5 15.5t57.5 34.5v-136q-57 -23 -117 -30q-23 -2 -39 -3t-26 -1q-121 0 -184.5 63.5t-63.5 179.5v713h-168z" />
<glyph unicode="u" horiz-adv-x="1122" d="M131 1042h231l-4 -45l-4 -73q0 -66 -4 -108t-6 -75v-426q0 -90 37 -135t121 -57q37 -4 53 -4q59 0 102 23.5t97 86.5l16 23v479q0 86 -5 190.5t-5 120.5h231l-6 -55l-6 -67q0 -43 -4 -104.5t-4 -84.5v-426q0 -170 16 -301h-215v125l-20 -23q-82 -78 -179 -104 q-43 -12 -90 -12q-39 0 -57 4q-145 23 -213 99.5t-68 221.5v420l-6 193l-4 61z" />
<glyph unicode="v" horiz-adv-x="897" d="M-4 1040h223q78 -313 189 -630l75 -209q37 92 82 209q39 102 76 217q63 205 113 413h147q-68 -262 -157 -522t-197 -518h-178q-86 188 -161 387t-140 406z" />
<glyph unicode="w" horiz-adv-x="1386" d="M-4 1040h223q53 -227 103.5 -406t121.5 -394l205 800h166l203 -804q139 401 227 804h146q-59 -250 -134 -489q-90 -293 -194 -551h-166l-199 748l-202 -748h-164q-191 491 -336 1040z" />
<glyph unicode="x" horiz-adv-x="913" d="M6 0l164 246q72 100 106 149l91 129l-312 516h228l206 -354l60 90l59 92l58 86l57 86h154l-154 -221l-158 -233l90 -152l88 -149l82 -144l82 -141h-233l-238 414l-69 -109l-70 -106l-61 -99l-64 -100h-166z" />
<glyph unicode="y" horiz-adv-x="843" d="M-29 -248q53 -43 121 -43q125 0 205 137q35 61 35 115q0 61 -41 158l-76 194q-70 193 -123 366t-98 361h215q76 -332 180 -634l78 -213q35 94 74 213q31 94 65 219q55 199 101 415h143l-51 -225q-76 -303 -170 -557q-84 -227 -164 -367q-100 -174 -184 -241.5t-195 -67.5 q-27 0 -41 2l-43 6l-16 4l-15 5v153z" />
<glyph unicode="z" horiz-adv-x="903" d="M41 0l551 938h-254q-129 0 -213 -39l-59 -31v172h806l-548 -931l254 4q98 0 157.5 15t118.5 56v-184h-813z" />
<glyph unicode="{" horiz-adv-x="647" d="M96 737q55 0 92 41t37 107v676q0 145 166 145h160v-92h-25q-72 0 -95 -23.5t-23 -95.5v-594q0 -63 -41 -110.5t-105 -53.5q63 -6 104.5 -53t41.5 -111v-593q0 -72 23.5 -95.5t94.5 -23.5h25v-92h-160q-166 0 -166 145v676q0 63 -36 105t-93 42z" />
<glyph unicode="|" horiz-adv-x="348" d="M96 0v1475h156v-1475h-156z" />
<glyph unicode="}" horiz-adv-x="647" d="M96 -139h25q72 0 95.5 23.5t23.5 95.5v593q0 63 41 110.5t104 53.5q-63 6 -104 53.5t-41 110.5v594q0 72 -23.5 95.5t-95.5 23.5h-25v92h160q166 0 166 -145v-676q0 -63 36 -105.5t93 -42.5q-55 0 -92 -41t-37 -106v-676q0 -145 -166 -145h-160v92z" />
<glyph unicode="~" horiz-adv-x="962" d="M96 590v37q0 119 54.5 181t144.5 62q59 0 125 -26l158 -64l24 -10q43 -12 68 -12q41 0 61 53q4 10 12 43l2 18h121v-36q0 -119 -54 -181.5t-144 -62.5q-59 0 -125 26l-160 64l-18 6q-53 16 -76 17q-37 0 -58 -54q-4 -10 -12 -43l-2 -18h-121z" />
<glyph unicode="&#xa1;" horiz-adv-x="413" d="M92 1370q0 117 131 117q61 0 97 -30t36 -81q0 -20 -11 -58t-53 -53.5t-77 -15.5q-57 0 -90 33t-33 88zM98 -2l58 1067h135l51 -1067h-244z" />
<glyph unicode="&#xa2;" horiz-adv-x="892" d="M68 475q0 88 24 180q39 150 143.5 253.5t249.5 138.5v153h97l-2 -143q20 2 35.5 3t25.5 1q43 0 62.5 -3t64.5 -14l43 -10l25 -6v-164l-43 29q-88 57 -179 57q-25 0 -36 -2v-835l30 2q147 16 226 104l61 -94l-27 -21q-78 -57 -149.5 -86.5t-140.5 -29.5v-166h-93v164 q-178 0 -297.5 140t-119.5 349zM279 530q0 -143 54 -242.5t150 -144.5v768l-18 -14q-106 -92 -146 -171t-40 -196z" />
<glyph unicode="&#xa3;" horiz-adv-x="974" d="M76 639v100h149l-14 21l-16 26q-119 197 -119 347q0 106 59 194q106 166 348 166q39 0 87 -5t92.5 -18.5t132.5 -52.5l63 -28l6 -3l-28 -208l-31 36q-94 109 -213 138q-18 6 -47 8t-33 2q-92 0 -151.5 -57.5t-59.5 -147.5q0 -51 12.5 -100t48.5 -127l9 -17l69 -135l2 -6 l17 -33h338v-98h-310l15 -33q37 -102 37 -180q0 -152 -152 -272l-43 -33l109 -4q242 0 325.5 13t161.5 61l-31 -193h-831v117q35 0 57.5 3t48.5 11q94 33 134 93.5t40 164.5q0 35 -14 79t-59 140l-17 31h-192z" />
<glyph unicode="&#xa4;" horiz-adv-x="937" d="M96 436l127 125q-59 82 -59 180q0 94 57 177l-123 118q25 37 64 72l127 -127q78 59 180 59q100 0 178 -57l125 127q16 -12 29.5 -24.5t25.5 -28.5l15 -21l-127 -118q57 -78 57 -179q0 -98 -59 -180l127 -127l-15 -16l-16 -15l-39 -34l-123 127q-78 -59 -178 -60 q-100 0 -178 60l-129 -125q-18 14 -34 29t-32 38zM264 737q0 -84 59.5 -143t145.5 -59q84 0 143.5 58t59.5 144q0 84 -59.5 143.5t-143.5 59.5t-144.5 -58.5t-60.5 -144.5z" />
<glyph unicode="&#xa5;" horiz-adv-x="1349" d="M59 1475h283l14 -29l23 -43l37 -72l26 -49l70 -117l211 -370l219 370l59 101l11 18l26 45l39 74l23 45l14 27h176l-26 -39l-21 -33l-31 -47l-47 -74l-67 -104l-8 -15l-209 -358h295v-111h-365l-27 -41l-2 -47h394v-110l-396 -2l4 -183l2 -118v-39l5 -82l2 -37l2 -35h-246 l2 39l2 35l2 49l4 70l2 92v26l-2 181h-383v112h385v43l-31 47l-354 2l-2 111h295l-209 356l-14 25l-60 94l-45 70l-32 49l-23 35z" />
<glyph unicode="&#xa7;" horiz-adv-x="1146" d="M72 541q0 82 35.5 157.5t111.5 147.5q20 24 57 49q-139 74 -139 242q0 61 21 120q68 205 352 236q18 2 35.5 3t38.5 1q190 0 311 -101.5t143 -265.5l4 -57l-186 2l-2 37q-25 197 -209 242q-43 12 -86 12q-123 0 -180 -82q-37 -53 -37 -113q0 -90 72 -139l82 -47l327 -170 q76 -39 127 -88q123 -109 123 -268q0 -176 -147 -299q-8 -6 -21 -17q-8 -6 -39 -24q141 -70 142 -238q0 -49 -17 -110q-37 -135 -147.5 -206t-300.5 -71q-406 0 -449 389l-4 49l186 -6l3 -35q12 -127 86.5 -197.5t193.5 -70.5q96 0 166 53q80 61 80 164q0 82 -57 127l-68 41 l-356 182q-123 63 -187.5 154.5t-64.5 196.5zM256 571q0 -117 125 -180l358 -182l39 24q113 86 113 191q0 82 -70 141q-29 25 -45 37t-47 27l-321 172l-62 -51q-90 -82 -90 -179z" />
<glyph unicode="&#xa8;" horiz-adv-x="479" d="M-61 1249q0 80 61 101q35 10 55 10q49 0 78 -31t29 -80q0 -80 -64 -102q-29 -10 -32 -10h-23q-47 0 -75.5 30.5t-28.5 81.5zM317 1249q0 80 62 101q35 10 55 10q49 0 78 -31t29 -80q0 -80 -64 -102q-29 -10 -33 -10h-22q-47 0 -76 30.5t-29 81.5z" />
<glyph unicode="&#xa9;" horiz-adv-x="1765" d="M119 739q0 317 223 541q109 109 251 166t290 57q152 0 289 -55t248.5 -166t170 -252t58.5 -291q0 -154 -55.5 -290t-167 -247.5t-253 -170t-290.5 -58.5q-152 0 -290 56.5t-251 169.5q-223 223 -223 540zM221 739q0 -133 51.5 -257t145.5 -219t215 -145t252 -50 q127 0 248.5 50t216 145t144.5 218t50 256q0 131 -49 255t-144.5 220.5t-216 146.5t-251.5 50q-127 0 -248 -49t-216 -145.5t-146.5 -218.5t-51.5 -257zM414 721q0 47 8 96t27 98q53 145 179 231.5t285 86.5q35 0 56.5 -4t31.5 -4q138 -25 238 -111l-61 -90q-78 68 -181 90 q-20 2 -37.5 5t-39.5 3q-162 0 -271.5 -113.5t-109.5 -285.5l6 -76q27 -137 132 -221t241 -84q51 0 104 14.5t102 44.5l50 37l63 -88q-68 -55 -146.5 -86t-170.5 -31q-215 0 -360.5 141.5t-145.5 346.5z" />
<glyph unicode="&#xaa;" horiz-adv-x="913" d="M96 1139q0 150 97.5 254t230.5 104q31 0 61 -6q123 -27 179 -125l10 -16l6 -15v140h135l2 -678h-137v149l-6 -16q-31 -68 -98.5 -109t-151.5 -41q-31 0 -60.5 6.5t-64.5 20.5q-162 66 -197 254q-6 41 -6 78zM117 571v125h700v-125h-700zM236 1139l6 -47q18 -98 94 -152 q57 -39 125 -39q66 0 125 41q74 53 92 148q4 16 4 49t-4 49q-25 123 -127 170q-41 20 -92 20q-45 0 -86 -18q-109 -49 -133 -178z" />
<glyph unicode="&#xab;" horiz-adv-x="763" d="M59 496v84q80 111 156 235l61 111h146l-205 -383l203 -389h-148q-86 170 -213 342zM342 496v84q80 111 156 235l61 111h146l-205 -383l200 -389h-145q-88 168 -213 342z" />
<glyph unicode="&#xac;" horiz-adv-x="1187" d="M96 737v156h996v-451h-129v295h-867z" />
<glyph unicode="&#xad;" horiz-adv-x="593" d="M47 469v172h500v-172h-500z" />
<glyph unicode="&#xae;" horiz-adv-x="1765" d="M119 739q0 317 223 541q109 109 251 166t290 57q152 0 289 -55t248.5 -166t170 -252t58.5 -291q0 -154 -55.5 -290t-167 -247.5t-253 -170t-290.5 -58.5q-152 0 -290 56.5t-251 169.5q-223 223 -223 540zM221 739q0 -133 51.5 -257t145.5 -219t215 -145t252 -50 q127 0 248.5 50t216 145t144.5 218t50 256q0 131 -49 255t-144.5 220.5t-216 146.5t-251.5 50q-127 0 -248 -49t-216 -145.5t-146.5 -218.5t-51.5 -257zM643 268v961h225q84 0 129 -12.5t86 -45.5q68 -55 86 -147q6 -35 7 -63q0 -102 -59.5 -169t-160.5 -81l-32 -2l301 -441 h-146l-313 473v-473h-123zM766 782h80q100 0 152.5 44t52.5 126t-49.5 128t-143.5 46h-92v-344z" />
<glyph unicode="&#xaf;" horiz-adv-x="587" d="M-8 1157v139h600v-139h-600z" />
<glyph unicode="&#xb0;" horiz-adv-x="745" d="M96 1227q0 117 80 196.5t197 79.5t196.5 -80t79.5 -196q0 -115 -81 -196t-195 -81q-117 0 -197 80t-80 197zM186 1227q0 -78 53.5 -131.5t133.5 -53.5q78 0 132 54.5t54 130.5t-54 131t-132 55t-132.5 -54t-54.5 -132z" />
<glyph unicode="&#xb4;" horiz-adv-x="485" d="M164 1137q47 78 84 161q16 35 28.5 69t28.5 83h172l-217 -313h-96z" />
<glyph unicode="&#xb6;" horiz-adv-x="1220" d="M96 1075q0 166 115 283t281 117h632v-107h-632q-119 0 -203 -86t-84 -211q0 -121 84 -205t203 -84h141v496h112v-1278h-112v676h-141q-162 0 -279 116.5t-117 282.5zM881 0v1278h112v-1278h-112z" />
<glyph unicode="&#xb7;" horiz-adv-x="380" d="M59 549q0 117 131 117q61 0 97.5 -30t36.5 -81q0 -20 -12.5 -59t-53.5 -52.5t-78 -13.5q-55 0 -88 33t-33 86z" />
<glyph unicode="&#xb8;" horiz-adv-x="376" d="M143 -98l29 14q63 29 125 29q59 0 98 -37t39 -92q0 -10 -3 -24.5t-5 -22.5q-16 -47 -67.5 -93.5t-129.5 -76.5l-53 -17v68l29 6q102 33 102 115q0 31 -17.5 50t-43.5 19q-14 0 -37 -6t-45 -27l-21 -20v115z" />
<glyph unicode="&#xba;" horiz-adv-x="913" d="M96 1141q0 41 8 73q27 131 124.5 212t224.5 81q74 0 147 -30q100 -41 159.5 -131.5t59.5 -202.5q0 -18 -3 -41t-5 -35q-20 -109 -96 -185.5t-185 -99.5q-37 -6 -73 -6q-35 0 -72 6q-109 23 -184.5 98.5t-98.5 186.5zM109 571v125h698v-125h-698zM233 1141l3 -43 q23 -125 129 -174q43 -20 94 -21q80 0 142.5 52.5t76.5 140.5q4 33 4 47q0 125 -96 194q-59 43 -131 43q-43 0 -90 -20q-106 -51 -129 -174z" />
<glyph unicode="&#xbb;" horiz-adv-x="761" d="M59 154l205 387l-205 385h144q59 -113 125 -211l92 -137v-80q-119 -162 -215 -344h-146zM342 154l205 387l-205 385h143q59 -113 125 -211l92 -137v-80q-119 -162 -215 -344h-145z" />
<glyph unicode="&#xbf;" horiz-adv-x="837" d="M20 373q0 92 41 173t121 134q51 37 116 56.5t110 19.5v313h139v-467l-51 2q-117 0 -184.5 -67.5t-67.5 -176.5q0 -29 9 -79t58 -101t121 -69q31 -8 68 -9q78 0 139 41t86 111l113 -143l-23 -17q-117 -78 -242 -100q-43 -6 -60 -8t-54 -2q-94 0 -167 24.5t-130 71.5 q-70 55 -106 132t-36 161zM348 1374q0 117 131 117t131 -117t-131 -117t-131 117z" />
<glyph unicode="&#xc0;" horiz-adv-x="1224" d="M-10 0l16 37l14 35l21 51l29 67l28 76l17 43l381 1096l-9 70h226l401 -1164l16 -47l27 -71l27 -66l20 -55l17 -35l14 -37h-283l-8 35l-8 37l-16 57l-17 64q-10 33 -18 62.5t-19 55.5l-53 154h-506l-57 -154l-37 -118l-18 -64l-15 -57l-8 -37l-8 -35h-174zM346 586h430 l-213 639zM360 1880h175l34 -76q59 -123 142 -235h-107z" />
<glyph unicode="&#xc1;" horiz-adv-x="1224" d="M-10 0l16 37l14 35l21 51l29 67l28 76l17 43l381 1096l-9 70h226l401 -1164l16 -47l27 -71l27 -66l20 -55l17 -35l14 -37h-283l-8 35l-8 37l-16 57l-17 64q-10 33 -18 62.5t-19 55.5l-53 154h-506l-57 -154l-37 -118l-18 -64l-15 -57l-8 -37l-8 -35h-174zM346 586h430 l-213 639zM535 1565q47 78 83 161q16 35 28.5 69t29.5 83h172l-217 -313h-96z" />
<glyph unicode="&#xc2;" horiz-adv-x="1224" d="M-10 0l16 37l14 35l21 51l29 67l28 76l17 43l381 1096l-9 70h226l401 -1164l16 -47l27 -71l27 -66l20 -55l17 -35l14 -37h-283l-8 35l-8 37l-16 57l-17 64q-10 33 -18 62.5t-19 55.5l-53 154h-506l-57 -154l-37 -118l-18 -64l-15 -57l-8 -37l-8 -35h-174zM344 1567 q133 141 215 313h109l41 -76q76 -135 174 -237h-142l-129 205l-127 -205h-141zM346 586h430l-213 639z" />
<glyph unicode="&#xc3;" horiz-adv-x="1224" d="M-10 0l16 37l14 35l21 51l29 67l28 76l17 43l381 1096l-9 70h226l401 -1164l16 -47l27 -71l27 -66l20 -55l17 -35l14 -37h-283l-8 35l-8 37l-16 57l-17 64q-10 33 -18 62.5t-19 55.5l-53 154h-506l-57 -154l-37 -118l-18 -64l-15 -57l-8 -37l-8 -35h-174zM317 1704 q59 29 156 29q35 0 51 -2q51 -10 94 -17l50 -8q20 -2 48.5 -5t53.5 -3q72 0 127 31l6 -127l-16 -7l-17 -6q-49 -20 -104 -20q-14 0 -31.5 2t-27.5 2l-72 10l-35 4l-49 8l-49 7q-37 0 -73 -1.5t-62 -7.5l-43 -14zM346 586h430l-213 639z" />
<glyph unicode="&#xc4;" horiz-adv-x="1224" d="M-10 0l16 37l14 35l21 51l29 67l28 76l17 43l381 1096l-9 70h226l401 -1164l16 -47l27 -71l27 -66l20 -55l17 -35l14 -37h-283l-8 35l-8 37l-16 57l-17 64q-10 33 -18 62.5t-19 55.5l-53 154h-506l-57 -154l-37 -118l-18 -64l-15 -57l-8 -37l-8 -35h-174zM309 1610 q0 106 113 106q111 0 110 -106q0 -106 -110 -107q-113 1 -113 107zM346 586h430l-213 639zM688 1610q0 106 113 106q80 0 102 -57q10 -35 10 -55q0 -47 -30.5 -74t-81.5 -27q-113 1 -113 107z" />
<glyph unicode="&#xc5;" horiz-adv-x="1218" d="M-10 0l16 37l14 35l21 51l29 67l28 76l17 43l381 1096l-9 70h226l401 -1164l16 -47l27 -71l27 -66l20 -55l17 -35l14 -37h-283l-8 35l-8 37l-16 57l-17 64q-10 33 -18 62.5t-19 55.5l-53 154h-506l-57 -154l-37 -118l-18 -64l-15 -57l-8 -37l-8 -35h-174zM346 586h430 l-213 639zM428 1681q0 74 52 124t122 50t120 -52t50 -122q0 -72 -52 -121t-122 -49t-120 50t-50 120zM504 1683q0 -43 27.5 -70.5t68.5 -27.5q18 0 36.5 8.5t31.5 20.5q29 29 28 67q0 37 -28.5 66t-65.5 29q-41 0 -69.5 -27t-28.5 -66z" />
<glyph unicode="&#xc6;" horiz-adv-x="1810" d="M-10 0l24 37l21 35l31 51l43 70l51 86l18 32l613 1086l-9 78h953v-136l-64 4l-63 5l-209 4h-269v-531h207q150 0 279 15v-152l-55 6l-54 2q-96 8 -168 8h-209v-569h330q27 0 87.5 2t94.5 2l66 4l53 2v-141h-862l4 35l2 37l6 121v51l2 67v154h-499l-92 -154l-66 -118 l-31 -62l-26 -59l-19 -37l-16 -35h-174zM481 588h430v766z" />
<glyph unicode="&#xc7;" horiz-adv-x="1181" d="M66 702q0 115 26 230q61 262 242.5 410.5t439.5 148.5q55 0 134 -9.5t188 -54.5v-231l-47 55q-119 119 -285 119q-102 0 -196.5 -50t-157.5 -149q-49 -72 -75 -178t-26 -241q0 -84 13 -177l30 -139q47 -158 155.5 -242.5t250.5 -84.5q147 0 289 104l57 49l74 -88l-39 -35 q-76 -61 -160 -99t-174 -50q-47 -6 -92 -6q-272 0 -457 198q-190 205 -190 520zM610 -98l29 14q63 29 125 29q59 0 97 -36t38 -93q0 -10 -3 -24.5t-5 -22.5q-14 -45 -66.5 -92.5t-130.5 -77.5l-51 -17v68l29 6q102 33 102 115q0 31 -17.5 50t-45.5 19q-14 0 -37 -6t-45 -27 l-19 -20v115z" />
<glyph unicode="&#xc8;" horiz-adv-x="1046" d="M131 0l2 37l4 35l2 55l4 66l2 118v852v62l-2 57l-2 55l-4 64l-2 39l-2 35h834v-138l-62 4l-61 2l-213 9h-266v-533h204l172 6l58 4l49 7v-156l-43 4l-66 6q-41 0 -96 4t-74 4h-202v-569h325l187 6l59 2l59 6v-143h-866zM270 1880h174l35 -76q59 -123 142 -235h-107z" />
<glyph unicode="&#xc9;" horiz-adv-x="1046" d="M131 0l2 37l4 35l2 55l4 66l2 118v852v62l-2 57l-2 55l-4 64l-2 39l-2 35h834v-138l-62 4l-61 2l-213 9h-266v-533h204l172 6l58 4l49 7v-156l-43 4l-66 6q-41 0 -96 4t-74 4h-202v-569h325l187 6l59 2l59 6v-143h-866zM444 1565q47 78 84 161q16 35 28.5 69t29.5 83h172 l-217 -313h-97z" />
<glyph unicode="&#xca;" horiz-adv-x="1046" d="M131 0l2 37l4 35l2 55l4 66l2 118v852v62l-2 57l-2 55l-4 64l-2 39l-2 35h834v-138l-62 4l-61 2l-213 9h-266v-533h204l172 6l58 4l49 7v-156l-43 4l-66 6q-41 0 -96 4t-74 4h-202v-569h325l187 6l59 2l59 6v-143h-866zM254 1567q133 141 215 313h109l40 -76 q76 -135 175 -237h-142l-129 205l-127 -205h-141z" />
<glyph unicode="&#xcb;" horiz-adv-x="1046" d="M131 0l2 37l4 35l2 55l4 66l2 118v852v62l-2 57l-2 55l-4 64l-2 39l-2 35h834v-138l-62 4l-61 2l-213 9h-266v-533h204l172 6l58 4l49 7v-156l-43 4l-66 6q-41 0 -96 4t-74 4h-202v-569h325l187 6l59 2l59 6v-143h-866zM221 1677q0 80 62 101q35 10 55 10q49 0 77.5 -31 t28.5 -80q0 -80 -63 -102q-29 -10 -33 -10h-22q-47 0 -76 30.5t-29 81.5zM600 1677q0 80 62 101q35 10 55 10q49 0 77.5 -31t28.5 -80q0 -80 -63 -102q-29 -10 -33 -10h-22q-47 0 -76 30.5t-29 81.5z" />
<glyph unicode="&#xcc;" horiz-adv-x="507" d="M2 1880h174l35 -76q59 -123 141 -235h-106zM131 1475h246l-2 -31l-2 -43l-4 -72l-2 -49v-35v-82v-852v-47l2 -71l2 -68l2 -53l2 -35l2 -37h-244l2 39l2 35l2 47l2 72l2 79v39v29v823l-2 54v65l-2 59l-4 60l-2 39z" />
<glyph unicode="&#xcd;" horiz-adv-x="507" d="M131 1475h246l-2 -31l-2 -43l-4 -72l-2 -49v-35v-82v-852v-47l2 -71l2 -68l2 -53l2 -35l2 -37h-244l2 39l2 35l2 47l2 72l2 79v39v29v823l-2 54v65l-2 59l-4 60l-2 39zM176 1565q47 78 84 161q16 35 28.5 69t28.5 83h172l-217 -313h-96z" />
<glyph unicode="&#xce;" horiz-adv-x="507" d="M-14 1567q133 141 215 313h108l41 -76q76 -135 174 -237h-141l-129 205l-127 -205h-141zM131 1475h246l-2 -31l-2 -43l-4 -72l-2 -49v-35v-82v-852v-47l2 -71l2 -68l2 -53l2 -35l2 -37h-244l2 39l2 35l2 47l2 72l2 79v39v29v823l-2 54v65l-2 59l-4 60l-2 39z" />
<glyph unicode="&#xcf;" horiz-adv-x="507" d="M-47 1677q0 80 61 101q35 10 56 10q49 0 77.5 -31t28.5 -80q0 -80 -63 -102q-29 -10 -33 -10h-23q-47 0 -75.5 30.5t-28.5 81.5zM131 1475h246l-2 -31l-2 -43l-4 -72l-2 -49v-35v-82v-852v-47l2 -71l2 -68l2 -53l2 -35l2 -37h-244l2 39l2 35l2 47l2 72l2 79v39v29v823 l-2 54v65l-2 59l-4 60l-2 39zM332 1677q0 80 61 101q35 10 56 10q49 0 77.5 -31t28.5 -80q0 -80 -63 -102q-29 -10 -33 -10h-23q-47 0 -75.5 30.5t-28.5 81.5z" />
<glyph unicode="&#xd1;" horiz-adv-x="1312" d="M131 0l2 37l2 37l4 53l2 66l2 67v51v852v58l-2 61l-2 59l-2 62l-2 35l-2 37h199l706 -1137v827v58l-2 61l-2 62l-4 59l-2 35l-2 35h156l-4 -37l-2 -33l-2 -51l-3 -70l-2 -80l-2 -39v-854l2 -65v-53l2 -58l5 -63l2 -37l2 -35h-181l-727 1171v-860v-51l2 -67l2 -66l3 -55 l4 -35l2 -37h-154zM360 1704q59 29 156 29q35 0 51 -2q51 -10 95 -17l49 -8q20 -2 48.5 -5t53.5 -3q72 0 127 31l6 -127l-16 -7l-17 -6q-49 -20 -104 -20q-14 0 -31.5 2t-27.5 2l-72 10l-35 4l-49 8l-49 7q-37 0 -73 -1.5t-62 -7.5l-43 -14z" />
<glyph unicode="&#xd2;" horiz-adv-x="1323" d="M70 737q0 365 157 566q152 193 420 192q80 0 166 -18q176 -37 292 -186.5t140 -397.5q8 -90 9 -116.5t1 -57.5q0 -309 -125 -500q-117 -178 -317 -221q-86 -18 -166 -18q-268 0 -420 192q-157 198 -157 565zM307 737q0 -342 94 -497q86 -143 261 -144q174 0 260 144 q94 156 94 497q0 342 -94 498q-86 143 -260 143t-261 -143q-94 -156 -94 -498zM410 1880h174l34 -76q59 -123 142 -235h-107z" />
<glyph unicode="&#xd3;" horiz-adv-x="1323" d="M70 737q0 365 157 566q152 193 420 192q80 0 166 -18q176 -37 292 -186.5t140 -397.5q8 -90 9 -116.5t1 -57.5q0 -309 -125 -500q-117 -178 -317 -221q-86 -18 -166 -18q-268 0 -420 192q-157 198 -157 565zM307 737q0 -342 94 -497q86 -143 261 -144q174 0 260 144 q94 156 94 497q0 342 -94 498q-86 143 -260 143t-261 -143q-94 -156 -94 -498zM584 1565q47 78 84 161q16 35 28.5 69t28.5 83h172l-217 -313h-96z" />
<glyph unicode="&#xd4;" horiz-adv-x="1323" d="M70 737q0 365 157 566q152 193 420 192q80 0 166 -18q176 -37 292 -186.5t140 -397.5q8 -90 9 -116.5t1 -57.5q0 -309 -125 -500q-117 -178 -317 -221q-86 -18 -166 -18q-268 0 -420 192q-157 198 -157 565zM307 737q0 -342 94 -497q86 -143 261 -144q174 0 260 144 q94 156 94 497q0 342 -94 498q-86 143 -260 143t-261 -143q-94 -156 -94 -498zM393 1567q133 141 215 313h109l41 -76q76 -135 174 -237h-141l-129 205l-127 -205h-142z" />
<glyph unicode="&#xd5;" horiz-adv-x="1323" d="M70 737q0 365 157 566q152 193 420 192q80 0 166 -18q176 -37 292 -186.5t140 -397.5q8 -90 9 -116.5t1 -57.5q0 -309 -125 -500q-117 -178 -317 -221q-86 -18 -166 -18q-268 0 -420 192q-157 198 -157 565zM307 737q0 -342 94 -497q86 -143 261 -144q174 0 260 144 q94 156 94 497q0 342 -94 498q-86 143 -260 143t-261 -143q-94 -156 -94 -498zM367 1704q59 29 155 29q35 0 51 -2q51 -10 95 -17l49 -8q20 -2 49 -5t53 -3q72 0 127 31l6 -127l-16 -7l-16 -6q-49 -20 -105 -20q-14 0 -31.5 2t-27.5 2l-72 10l-35 4l-49 8l-49 7 q-37 0 -73 -1.5t-62 -7.5l-43 -14z" />
<glyph unicode="&#xd6;" horiz-adv-x="1320" d="M68 737q0 365 157 566q152 193 420 192q80 0 166 -18q176 -37 292 -186.5t140 -397.5q8 -90 9 -116.5t1 -57.5q0 -309 -125 -500q-117 -178 -317 -221q-86 -18 -166 -18q-268 0 -420 192q-157 198 -157 565zM262 1604q0 106 113 106q84 0 102 -57q6 -14 7 -30.5t3 -25.5 q0 -47 -30.5 -73.5t-81.5 -26.5q-113 1 -113 107zM305 737q0 -342 94 -497q86 -143 260 -144q174 0 261 144q94 156 94 497q0 342 -94 498q-86 143 -261 143q-174 0 -260 -143q-94 -156 -94 -498zM823 1604q0 106 111 106q84 0 102 -57q12 -31 13 -58q0 -45 -31 -71.5 t-84 -26.5q-111 1 -111 107z" />
<glyph unicode="&#xd8;" horiz-adv-x="1302" d="M66 641q0 414 152.5 630t430.5 216q59 0 85 -3t73 -14l94 -26l35 86l90 -14l-49 -115q68 -41 117 -114t96 -208q23 -59 34 -117.5t11 -123.5q0 -410 -153.5 -630t-426.5 -220q-51 0 -77.5 2t-75.5 14l-86 25l-31 -76l-92 16l41 103q-72 43 -124 115.5t-99 207.5 q-23 61 -34 118.5t-11 127.5zM307 782.5q0 -28.5 2 -57.5q0 -186 31 -291q25 -82 90 -174l401 1045q-55 76 -174 75h-28q-8 0 -56 -10q-109 -27 -174 -131t-88 -315q-2 -29 -3 -49.5t-1 -34.5v-57.5zM483 168l27 -16q86 -45 160 -46q121 0 206 108t109 314q4 31 6 97.5 t2 109.5q0 201 -24.5 292t-91.5 181z" />
<glyph unicode="&#xd9;" horiz-adv-x="1308" d="M131 1475h254l-2 -33l-4 -39l-4 -64l-2 -55v-51l-2 -68l-2 -706q0 -188 73.5 -272.5t241.5 -84.5q182 0 268 80t86 242v741l-2 35l-2 84l-4 70l-4 49l-2 35l-4 37h158l-2 -35l-2 -37l-5 -60l-2 -59l-2 -65v-54v-735q0 -209 -120.5 -329.5t-352.5 -120.5q-41 0 -96 6 t-109 16q-164 33 -252 143.5t-88 286.5l3 733v23l-7 96l-2 72l-4 47l-2 33zM401 1880h174l35 -76q59 -123 142 -235h-107z" />
<glyph unicode="&#xda;" horiz-adv-x="1308" d="M131 1475h254l-2 -33l-4 -39l-4 -64l-2 -55v-51l-2 -68l-2 -706q0 -188 73.5 -272.5t241.5 -84.5q182 0 268 80t86 242v741l-2 35l-2 84l-4 70l-4 49l-2 35l-4 37h158l-2 -35l-2 -37l-5 -60l-2 -59l-2 -65v-54v-735q0 -209 -120.5 -329.5t-352.5 -120.5q-41 0 -96 6 t-109 16q-164 33 -252 143.5t-88 286.5l3 733v23l-7 96l-2 72l-4 47l-2 33zM575 1565q47 78 84 161q16 35 28.5 69t29.5 83h172l-217 -313h-97z" />
<glyph unicode="&#xdb;" horiz-adv-x="1308" d="M131 1475h254l-2 -33l-4 -39l-4 -64l-2 -55v-51l-2 -68l-2 -706q0 -188 73.5 -272.5t241.5 -84.5q182 0 268 80t86 242v741l-2 35l-2 84l-4 70l-4 49l-2 35l-4 37h158l-2 -35l-2 -37l-5 -60l-2 -59l-2 -65v-54v-735q0 -209 -120.5 -329.5t-352.5 -120.5q-41 0 -96 6 t-109 16q-164 33 -252 143.5t-88 286.5l3 733v23l-7 96l-2 72l-4 47l-2 33zM385 1567q133 141 215 313h109l41 -76q76 -135 174 -237h-142l-129 205l-127 -205h-141z" />
<glyph unicode="&#xdc;" horiz-adv-x="1308" d="M131 1475h254l-2 -33l-4 -39l-4 -64l-2 -55v-51l-2 -68l-2 -706q0 -188 73.5 -272.5t241.5 -84.5q182 0 268 80t86 242v741l-2 35l-2 84l-4 70l-4 49l-2 35l-4 37h158l-2 -35l-2 -37l-5 -60l-2 -59l-2 -65v-54v-735q0 -209 -120.5 -329.5t-352.5 -120.5q-41 0 -96 6 t-109 16q-164 33 -252 143.5t-88 286.5l3 733v23l-7 96l-2 72l-4 47l-2 33zM397 1616q0 104 113 104q111 0 111 -104q0 -106 -111 -107q-113 1 -113 107zM776 1616q0 104 113 104q111 0 110 -104q0 -106 -110 -107q-113 1 -113 107z" />
<glyph unicode="&#xdf;" horiz-adv-x="1120" d="M135 0l2 37l4 35l2 57l4 64l3 65v51v768q0 176 115.5 294t320.5 118q178 0 284.5 -83t106.5 -214q0 -47 -17.5 -107.5t-69.5 -110.5t-145 -87l-47 -17l50 -12q145 -41 231 -156.5t86 -283.5q0 -203 -96.5 -319.5t-259.5 -116.5q-109 0 -189 49v168q49 -80 142 -80 q74 0 121.5 54t64.5 173q4 20 4 45v39q0 133 -68.5 228.5t-187.5 136.5q-18 6 -39.5 10t-34.5 6v123q33 0 58 8q145 35 186 152q18 49 18 94q0 84 -55 135t-141 51q-109 0 -174.5 -77.5t-65.5 -206.5v-1090h-213z" />
<glyph unicode="&#xe0;" horiz-adv-x="1044" d="M76 283q0 127 94 213q104 96 352 180l80 26l49 15l47 14v37q0 78 -73.5 133t-188.5 55q-82 0 -170 -34l-51 -23l-25 -12l-20 -13v164q59 12 95 17.5t81 5.5q279 0 415 -76t136 -215v-532q0 -131 33 -238h-215q-10 31 -13.5 52.5t0.5 49.5l-24 -18q-59 -43 -112.5 -66.5 t-88.5 -28.5t-54.5 -5h-29.5q-143 0 -230 83t-87 216zM268 299q0 -113 94 -164q53 -27 111 -26q16 0 37.5 3t62.5 13t89 45l38 31v434l-90 -35l-63 -27l-49 -20l-62 -31q-47 -27 -69.5 -43t-42.5 -41q-55 -57 -56 -139zM270 1452h174l35 -76q59 -123 142 -235h-107z" />
<glyph unicode="&#xe1;" horiz-adv-x="1044" d="M76 283q0 127 94 213q104 96 352 180l80 26l49 15l47 14v37q0 78 -73.5 133t-188.5 55q-82 0 -170 -34l-51 -23l-25 -12l-20 -13v164q59 12 95 17.5t81 5.5q279 0 415 -76t136 -215v-532q0 -131 33 -238h-215q-10 31 -13.5 52.5t0.5 49.5l-24 -18q-59 -43 -112.5 -66.5 t-88.5 -28.5t-54.5 -5h-29.5q-143 0 -230 83t-87 216zM268 299q0 -113 94 -164q53 -27 111 -26q16 0 37.5 3t62.5 13t89 45l38 31v434l-90 -35l-63 -27l-49 -20l-62 -31q-47 -27 -69.5 -43t-42.5 -41q-55 -57 -56 -139zM444 1137q47 78 84 161q16 35 28.5 69t29.5 83h172 l-217 -313h-97z" />
<glyph unicode="&#xe2;" horiz-adv-x="1044" d="M76 283q0 127 94 213q104 96 352 180l80 26l49 15l47 14v37q0 78 -73.5 133t-188.5 55q-82 0 -170 -34l-51 -23l-25 -12l-20 -13v164q59 12 95 17.5t81 5.5q279 0 415 -76t136 -215v-532q0 -131 33 -238h-215q-10 31 -13.5 52.5t0.5 49.5l-24 -18q-59 -43 -112.5 -66.5 t-88.5 -28.5t-54.5 -5h-29.5q-143 0 -230 83t-87 216zM254 1139q133 141 215 313h109l40 -76q76 -135 175 -237h-142l-129 204l-127 -204h-141zM268 299q0 -113 94 -164q53 -27 111 -26q16 0 37.5 3t62.5 13t89 45l38 31v434l-90 -35l-63 -27l-49 -20l-62 -31 q-47 -27 -69.5 -43t-42.5 -41q-55 -57 -56 -139z" />
<glyph unicode="&#xe3;" horiz-adv-x="1044" d="M76 283q0 127 94 213q104 96 352 180l80 26l49 15l47 14v37q0 78 -73.5 133t-188.5 55q-82 0 -170 -34l-51 -23l-25 -12l-20 -13v164q59 12 95 17.5t81 5.5q279 0 415 -76t136 -215v-532q0 -131 33 -238h-215q-10 31 -13.5 52.5t0.5 49.5l-24 -18q-59 -43 -112.5 -66.5 t-88.5 -28.5t-54.5 -5h-29.5q-143 0 -230 83t-87 216zM227 1276q59 29 156 29q35 0 51 -2q51 -10 94 -17l50 -8q20 -2 48.5 -5t53.5 -3q72 0 127 30l6 -126l-16 -7l-17 -6q-49 -20 -104 -20q-14 0 -31.5 2t-28.5 2l-71 10l-35 4l-49 8l-49 7q-37 0 -73 -1.5t-63 -7.5 l-43 -14zM268 299q0 -113 94 -164q53 -27 111 -26q16 0 37.5 3t62.5 13t89 45l38 31v434l-90 -35l-63 -27l-49 -20l-62 -31q-47 -27 -69.5 -43t-42.5 -41q-55 -57 -56 -139z" />
<glyph unicode="&#xe4;" horiz-adv-x="1044" d="M76 283q0 127 94 213q104 96 352 180l80 26l49 15l47 14v37q0 78 -73.5 133t-188.5 55q-82 0 -170 -34l-51 -23l-25 -12l-20 -13v164q59 12 95 17.5t81 5.5q279 0 415 -76t136 -215v-532q0 -115 21 -195l12 -43h-215q-10 31 -13.5 52.5t0.5 49.5l-24 -18 q-59 -43 -112.5 -66.5t-88.5 -28.5t-54.5 -5h-29.5q-143 0 -230 83t-87 216zM213 1305q0 111 111 110q111 0 110 -110q0 -111 -110 -111q-111 0 -111 111zM268 299q0 -113 94 -164q53 -27 111 -26q16 0 37.5 3t62.5 13t89 45l38 31v434l-90 -35l-63 -27l-49 -20l-62 -31 q-47 -27 -69.5 -43t-42.5 -41q-55 -57 -56 -139zM590 1305q0 111 112 110q111 0 111 -110q0 -111 -111 -111q-112 0 -112 111z" />
<glyph unicode="&#xe5;" horiz-adv-x="1048" d="M78 283q0 127 94 213q104 96 352 180l80 26l49 15l47 14v37q0 78 -73.5 133t-188.5 55q-82 0 -170 -34l-51 -23l-24 -12l-21 -13v164q59 12 95 17.5t81 5.5q279 0 415 -76t136 -215v-532q0 -115 21 -195l12 -43h-215q-10 31 -13.5 52.5t1.5 49.5l-25 -18 q-59 -43 -112.5 -66.5t-88.5 -28.5t-54 -5h-30q-143 0 -230 83t-87 216zM270 299q0 -113 95 -164q53 -27 110 -26q16 0 38 3t62.5 13t88.5 45l38 31v434l-90 -35l-63 -27l-49 -20l-62 -31q-47 -27 -69.5 -43t-42.5 -41q-55 -57 -56 -139zM371 1313q0 68 50 116t116 48 q68 0 113.5 -48.5t45.5 -117.5q0 -35 -10 -62.5t-37 -52.5q-47 -47 -114 -47q-63 0 -113.5 48t-50.5 116zM442 1313q0 -37 27 -65.5t66 -28.5q37 0 64.5 26.5t27.5 65.5q0 35 -27 61.5t-63 30.5q-39 0 -67 -25.5t-28 -64.5z" />
<glyph unicode="&#xe6;" horiz-adv-x="1624" d="M72 283q0 117 115.5 222t349.5 179l84 25l41 10l36 10v23q0 90 -70.5 150.5t-185.5 60.5q-98 0 -213 -52l-63 -32v159l57 9q51 6 118 11t116 5q154 0 242.5 -38t136.5 -112l18 19q109 102 225 125q41 8 88 8q133 0 226.5 -81t134.5 -236q6 -25 10 -44.5t4 -33.5 l-622 -250q12 -70 45 -141q45 -92 117.5 -142.5t158.5 -50.5q109 0 211 86l45 47l70 -80l-27 -24q-111 -96 -254 -125q-29 -6 -69.5 -8t-42.5 -2q-197 0 -340 161l-27 35l-21 -18l-34 -29q-94 -76 -186.5 -111.5t-176.5 -35.5q-88 0 -156.5 36.5t-111.5 106.5 q-49 80 -49 158zM272 303q0 -123 111 -174q37 -18 86 -18q51 0 98 15t103 52l28 21v432l-49 -21l-14 -4l-115 -45l-10 -4q-92 -39 -138 -73.5t-73 -81t-27 -99.5zM897 553l4 -37l361 150q70 27 69 88q0 49 -51 120q-61 80 -145 80q-76 0 -142 -67q-49 -51 -72.5 -135 t-23.5 -199z" />
<glyph unicode="&#xe7;" horiz-adv-x="892" d="M70 496q0 250 156.5 406.5t396.5 156.5q51 0 90 -4t90 -19l33 -8v-164l-43 31q-43 29 -86 41t-93 12q-113 0 -201.5 -77.5t-121.5 -219.5q-16 -72 -17 -139q0 -102 38 -200.5t111 -150.5t165 -52q100 0 196 67q29 18 50 43l61 -94l-27 -21q-68 -49 -125 -74.5t-120 -35.5 q-20 -4 -47 -6t-50 -2q-203 0 -329.5 139t-126.5 371zM428 -90l27 12q59 25 110 25q55 0 88 -33t33 -82q0 -20 -6 -43q-14 -45 -58 -85t-118 -66q-4 -2 -20.5 -7.5t-26.5 -7.5v60l26 6q86 27 92 102q0 61 -57 62q-18 0 -36.5 -6.5t-35.5 -22.5q-12 -7 -18 -19v105z" />
<glyph unicode="&#xe8;" horiz-adv-x="980" d="M70 520q0 264 137 408q66 68 146.5 101.5t166.5 33.5q98 0 184.5 -44t135.5 -126q12 -25 18 -37q18 -37 29.5 -68.5t13.5 -42.5q10 -36 10 -73l-622 -252q10 -61 39 -123q47 -98 119.5 -149.5t160.5 -51.5q125 0 234 103l24 24l64 -82l-29 -28q-117 -100 -256 -123 q-20 -4 -46 -6t-48 -2q-209 0 -342 141q-139 147 -139 397zM238 1452h174l34 -76q59 -123 142 -235h-107zM268 547l2 -31l385 160q45 20 45 78q0 61 -56 131.5t-140 70.5q-53 0 -100.5 -29.5t-80 -87t-44 -124t-11.5 -168.5z" />
<glyph unicode="&#xe9;" horiz-adv-x="980" d="M70 520q0 264 137 408q66 68 146.5 101.5t166.5 33.5q98 0 184.5 -44t135.5 -126q12 -25 18 -37q18 -37 29.5 -68.5t13.5 -42.5q10 -36 10 -73l-622 -252q10 -61 39 -123q47 -98 119.5 -149.5t160.5 -51.5q125 0 234 103l24 24l64 -82l-29 -28q-117 -100 -256 -123 q-20 -4 -46 -6t-48 -2q-209 0 -342 141q-139 147 -139 397zM268 547l2 -31l385 160q45 20 45 78q0 61 -56 131.5t-140 70.5q-53 0 -100.5 -29.5t-80 -87t-44 -124t-11.5 -168.5zM412 1137q47 78 84 161q16 35 28.5 69t28.5 83h172l-217 -313h-96z" />
<glyph unicode="&#xea;" horiz-adv-x="980" d="M70 520q0 264 137 408q66 68 146.5 101.5t166.5 33.5q98 0 184.5 -44t135.5 -126q12 -25 18 -37q18 -37 29.5 -68.5t13.5 -42.5q10 -36 10 -73l-622 -252q10 -61 39 -123q47 -98 119.5 -149.5t160.5 -51.5q125 0 234 103l24 24l64 -82l-29 -28q-117 -100 -256 -123 q-20 -4 -46 -6t-48 -2q-209 0 -342 141q-139 147 -139 397zM221 1139q133 141 215 313h109l41 -76q76 -135 174 -237h-142l-129 204l-127 -204h-141zM268 547l2 -31l385 160q45 20 45 78q0 61 -56 131.5t-140 70.5q-53 0 -100.5 -29.5t-80 -87t-44 -124t-11.5 -168.5z" />
<glyph unicode="&#xeb;" horiz-adv-x="980" d="M70 520q0 264 137 408q66 68 146.5 101.5t166.5 33.5q98 0 184.5 -44t135.5 -126q12 -25 18 -37q18 -37 29.5 -68.5t13.5 -42.5q10 -36 10 -73l-622 -252q10 -61 39 -123q47 -98 119.5 -149.5t160.5 -51.5q125 0 234 103l24 24l64 -82l-29 -28q-117 -100 -256 -123 q-20 -4 -46 -6t-48 -2q-209 0 -342 141q-139 147 -139 397zM188 1249q0 80 62 101q35 10 55 10q49 0 78 -31t29 -80q0 -80 -64 -102q-29 -10 -33 -10h-22q-47 0 -76 30.5t-29 81.5zM268 547l2 -31l385 160q45 20 45 78q0 61 -56 131.5t-140 70.5q-53 0 -100.5 -29.5t-80 -87 t-44 -124t-11.5 -168.5zM567 1249q0 80 62 101q35 10 55 10q49 0 78 -31t29 -80q0 -80 -64 -102q-29 -10 -33 -10h-22q-47 0 -76 30.5t-29 81.5z" />
<glyph unicode="&#xec;" horiz-adv-x="477" d="M-14 1452h174l35 -76q59 -123 141 -235h-107zM123 0l4 35l4 37l6 118l4 119v434v39l-4 80l-6 119l-2 27l-4 32h217v-731l2 -76v-40l2 -54l4 -67l2 -39l2 -33h-231z" />
<glyph unicode="&#xed;" horiz-adv-x="477" d="M123 0l4 35l4 37l6 118l4 119v434v39l-4 80l-6 119l-2 27l-4 32h217v-731l2 -76v-40l2 -54l4 -67l2 -39l2 -33h-231zM160 1137q47 78 84 161q16 35 28.5 69t28.5 83h172l-217 -313h-96z" />
<glyph unicode="&#xee;" horiz-adv-x="477" d="M-31 1139q133 141 215 313h109l41 -76q76 -135 174 -237h-141l-129 204l-127 -204h-142zM123 0l4 35l4 37l6 118l4 119v434v39l-4 80l-6 119l-2 27l-4 32h217v-731l2 -76v-40l2 -54l4 -67l2 -39l2 -33h-231z" />
<glyph unicode="&#xef;" horiz-adv-x="477" d="M-63 1249q0 80 61 101q35 10 55 10q49 0 78 -31t29 -80q0 -80 -64 -102q-29 -10 -33 -10h-22q-47 0 -75.5 30.5t-28.5 81.5zM123 0l4 35l4 37l6 118l4 119v434v39l-4 80l-6 119l-2 27l-4 32h217v-731l2 -76v-40l2 -54l4 -67l2 -39l2 -33h-231zM315 1249q0 80 62 101 q35 10 55 10q49 0 78 -31t29 -80q0 -80 -64 -102q-29 -10 -33 -10h-22q-47 0 -76 30.5t-29 81.5z" />
<glyph unicode="&#xf1;" horiz-adv-x="1122" d="M131 0l4 51l6 74l9 186v428l-7 191l-2 53l-6 57h215v-125l21 21l55 45q100 74 205 74q33 0 69 -6q139 -20 207 -99.5t68 -222.5v-418q0 -27 4 -100.5t4 -93.5l4 -62l4 -53h-231l4 45l4 74l8 184v424q0 92 -35.5 136t-122.5 59q-23 2 -32 2q-18 2 -33 0q-57 -6 -97 -29 t-85 -78l-21 -24v-482q0 -94 3 -158.5t9 -152.5h-231zM266 1276q59 29 156 29q35 0 51 -2q51 -10 94 -17l49 -8q20 -2 49 -5t54 -3q72 0 127 30l6 -126l-16 -7l-17 -6q-49 -20 -104 -20q-14 0 -31.5 2t-28.5 2l-71 10l-35 4l-49 8l-49 7q-37 0 -73 -1.5t-63 -7.5l-43 -14z " />
<glyph unicode="&#xf2;" horiz-adv-x="1040" d="M70 518q0 227 104.5 368.5t271.5 164.5q37 6 74 6q199 0 325 -144.5t126 -394.5t-127 -396.5t-326 -146.5q-35 0 -72 7q-168 25 -272 167t-104 369zM268 1452h174l35 -76q59 -123 141 -235h-106zM281 518q0 -135 16 -206.5t57 -129.5q68 -94 168 -94q102 0 166 94 q35 53 51.5 102.5t16.5 129.5q0 184 -13.5 281.5t-54.5 156.5q-66 92 -168 92q-100 0 -166 -92q-39 -53 -56 -130t-17 -204z" />
<glyph unicode="&#xf3;" horiz-adv-x="1040" d="M70 518q0 227 104.5 368.5t271.5 164.5q37 6 74 6q199 0 325 -144.5t126 -394.5t-127 -396.5t-326 -146.5q-35 0 -72 7q-168 25 -272 167t-104 369zM281 518q0 -135 16 -206.5t57 -129.5q68 -94 168 -94q102 0 166 94q35 53 51.5 102.5t16.5 129.5q0 184 -13.5 281.5 t-54.5 156.5q-66 92 -168 92q-100 0 -166 -92q-39 -53 -56 -130t-17 -204zM442 1137q47 78 84 161q16 35 28.5 69t29.5 83h172l-217 -313h-97z" />
<glyph unicode="&#xf4;" horiz-adv-x="1040" d="M70 518q0 227 104.5 368.5t271.5 164.5q37 6 74 6q199 0 325 -144.5t126 -394.5t-127 -396.5t-326 -146.5q-35 0 -72 7q-168 25 -272 167t-104 369zM252 1139q133 141 215 313h108l41 -76q76 -135 175 -237h-142l-129 204l-127 -204h-141zM281 518q0 -135 16 -206.5 t57 -129.5q68 -94 168 -94q102 0 166 94q35 53 51.5 102.5t16.5 129.5q0 184 -13.5 281.5t-54.5 156.5q-66 92 -168 92q-100 0 -166 -92q-39 -53 -56 -130t-17 -204z" />
<glyph unicode="&#xf5;" horiz-adv-x="1040" d="M70 518q0 227 104.5 368.5t271.5 164.5q37 6 74 6q199 0 325 -144.5t126 -394.5t-127 -396.5t-326 -146.5q-35 0 -72 7q-168 25 -272 167t-104 369zM225 1276q59 29 156 29q35 0 51 -2q51 -10 94 -17l49 -8q20 -2 49 -5t54 -3q72 0 127 30l6 -126l-16 -7l-17 -6 q-49 -20 -104 -20q-14 0 -31.5 2t-28.5 2l-71 10l-35 4l-49 8l-49 7q-37 0 -73 -1.5t-63 -7.5l-43 -14zM281 518q0 -135 16 -206.5t57 -129.5q68 -94 168 -94q102 0 166 94q35 53 51.5 102.5t16.5 129.5q0 184 -13.5 281.5t-54.5 156.5q-66 92 -168 92q-100 0 -166 -92 q-39 -53 -56 -130t-17 -204z" />
<glyph unicode="&#xf6;" horiz-adv-x="1040" d="M70 518q0 227 104.5 368.5t271.5 164.5q37 6 74 6q199 0 325 -144.5t126 -394.5t-127 -396.5t-326 -146.5q-35 0 -72 7q-168 25 -272 167t-104 369zM221 1305q0 111 113 110q115 0 115 -104q0 -25 -12.5 -61t-46.5 -46t-36 -10q-10 -2 -28 -2q-47 0 -76 31t-29 82z M281 518q0 -135 16 -206.5t57 -129.5q68 -94 168 -94q102 0 166 94q35 53 51.5 102.5t16.5 129.5q0 184 -13.5 281.5t-54.5 156.5q-66 92 -168 92q-100 0 -166 -92q-39 -53 -56 -130t-17 -204zM600 1305q0 111 113 110q115 0 114 -104q0 -25 -12 -61t-46 -46t-36 -10 q-10 -2 -28 -2q-47 0 -76 31t-29 82z" />
<glyph unicode="&#xf8;" horiz-adv-x="1038" d="M68 518q0 250 125.5 394.5t324.5 144.5q35 0 75 -6.5t80 -18.5t79 -35l45 80l82 -8l-70 -121l8 -10l8 -6q143 -139 144 -414q0 -225 -104.5 -368.5t-270.5 -167.5q-43 -6 -80 -7q-127 0 -215 66l-47 -86l-78 8l64 119l-17 12l-8 8q-55 47 -89 120t-45 154t-11 142z M283 543q0 -115 11 -172.5t48 -122.5l322 606l-9 4l-59 43q-53 39 -90 39t-96 -41q-41 -29 -69 -75t-44 -128q-6 -23 -10 -57.5t-4 -95.5zM383 176q12 -12 26.5 -23.5t34.5 -25.5q41 -29 91 -29q68 0 123 51.5t79 151.5q10 41 12.5 92t2.5 137q0 94 -12.5 147.5t-39.5 102.5 z" />
<glyph unicode="&#xf9;" horiz-adv-x="1122" d="M131 1042h231l-4 -45l-4 -73q0 -66 -4 -108t-6 -75v-426q0 -90 37 -135t121 -57q37 -4 53 -4q59 0 102 23.5t97 86.5l16 23v479q0 86 -5 190.5t-5 120.5h231l-6 -55l-6 -67q0 -43 -4 -104.5t-4 -84.5v-426q0 -170 16 -301h-215v125l-20 -23q-82 -78 -179 -104 q-43 -12 -90 -12q-39 0 -57 4q-145 23 -213 99.5t-68 221.5v420l-6 193l-4 61zM309 1452h174l35 -76q59 -123 141 -235h-106z" />
<glyph unicode="&#xfa;" horiz-adv-x="1122" d="M131 1042h231l-4 -45l-4 -73q0 -66 -4 -108t-6 -75v-426q0 -90 37 -135t121 -57q37 -4 53 -4q59 0 102 23.5t97 86.5l16 23v479q0 86 -5 190.5t-5 120.5h231l-6 -55l-6 -67q0 -43 -4 -104.5t-4 -84.5v-426q0 -170 16 -301h-215v125l-20 -23q-82 -78 -179 -104 q-43 -12 -90 -12q-39 0 -57 4q-145 23 -213 99.5t-68 221.5v420l-6 193l-4 61zM483 1137q47 78 84 161q16 35 28.5 69t29.5 83h172l-217 -313h-97z" />
<glyph unicode="&#xfb;" horiz-adv-x="1122" d="M131 1042h231l-4 -45l-4 -73q0 -66 -4 -108t-6 -75v-426q0 -90 37 -135t121 -57q37 -4 53 -4q59 0 102 23.5t97 86.5l16 23v479q0 86 -5 190.5t-5 120.5h231l-6 -55l-6 -67q0 -43 -4 -104.5t-4 -84.5v-426q0 -170 16 -301h-215v125l-20 -23q-82 -78 -179 -104 q-43 -12 -90 -12q-39 0 -57 4q-145 23 -213 99.5t-68 221.5v420l-6 193l-4 61zM293 1139q133 141 215 313h108l41 -76q76 -135 174 -237h-141l-129 204l-127 -204h-141z" />
<glyph unicode="&#xfc;" horiz-adv-x="1134" d="M131 1042h231l-4 -45l-4 -73q0 -66 -4 -108t-6 -75v-426q0 -90 37 -135t121 -57q37 -4 53 -4q59 0 102 23.5t97 86.5l16 23v479q0 86 -5 190.5t-5 120.5h231l-6 -61l-4 -61l-8 -189v-426l4 -190l4 -54l6 -57h-215v125l-20 -23q-82 -78 -179 -104q-43 -12 -90 -12 q-39 0 -57 4q-145 23 -213 99.5t-68 221.5v420l-6 193l-4 61zM258 1305q0 80 61 102q12 4 26.5 6t27.5 2q49 0 77.5 -30.5t28.5 -79.5q0 -82 -61 -101q-35 -10 -56 -10q-47 0 -75.5 31t-28.5 80zM637 1305q0 80 61 102q12 4 26.5 6t27.5 2q49 0 77.5 -30.5t28.5 -79.5 q0 -82 -61 -101q-35 -10 -56 -10q-47 0 -75.5 31t-28.5 80z" />
<glyph unicode="&#xfd;" horiz-adv-x="0" />
<glyph unicode="&#xff;" horiz-adv-x="843" d="M-29 -248q53 -43 121 -43q125 0 205 137q35 61 35 115q0 61 -41 158l-76 194q-70 193 -123 366t-98 361h215q76 -332 180 -634l78 -213q35 94 74 213q31 94 65 219q55 199 101 415h143l-51 -225q-76 -303 -170 -557q-84 -227 -164 -367q-100 -174 -184 -241.5t-195 -67.5 q-27 0 -41 2l-43 6l-16 4l-15 5v153zM121 1249q0 80 61 101q35 10 56 10q49 0 77.5 -31t28.5 -80q0 -80 -63 -102q-29 -10 -33 -10h-23q-47 0 -75.5 30.5t-28.5 81.5zM500 1249q0 80 61 101q35 10 55 10q49 0 78 -31t29 -80q0 -80 -64 -102q-29 -10 -32 -10h-23 q-47 0 -75.5 30.5t-28.5 81.5z" />
<glyph unicode="&#x152;" horiz-adv-x="1802" d="M68 762q0 356 198 547q186 178 508 178h19l61 -6l115 -6h753v-134l-63 2l-64 5l-204 6h-271v-533h205h31q47 0 125 6l69 7l54 4v-154l-43 4l-78 4l-160 8h-203v-571h332l180 6l72 4l47 4v-143h-862l-86 -4h-8l-66 -6l-49 -2q-256 0 -406 141q-160 152 -196 461 q-6 41 -8 82t-2 90zM307 696q0 -303 99 -456q90 -141 245 -142q27 0 58 6q135 23 194 134v997l-22 33q-41 53 -95.5 79.5t-119.5 26.5q-68 0 -128.5 -27.5t-109.5 -89.5q-37 -47 -64.5 -119.5t-38 -150.5t-14.5 -153.5t-4 -137.5z" />
<glyph unicode="&#x153;" horiz-adv-x="1687" d="M68 510q0 82 14 156q29 150 113 249t211 134q68 18 126 18q184 0 316 -162l20 -24l6 -9l23 31q100 123 248 152q55 10 96 10q131 0 223 -81t133 -239q6 -25 10.5 -43t4.5 -32l-627 -250l16 -62q43 -129 125 -198.5t183 -69.5q113 0 213 86l45 43l63 -80l-28 -26 q-106 -98 -244 -123q-47 -8 -101 -8q-225 0 -354 174l-24 43l-17 -25q-127 -193 -342 -192q-59 0 -114 14q-147 35 -240 170q-98 143 -98 344zM281 526q0 -141 29.5 -232t87 -144.5t126.5 -53.5q119 0 183 117q16 31 29.5 81t23.5 120q4 53 6 77.5t2 47.5q0 45 -6 92 q-16 180 -98 264q-59 61 -138 61q-121 0 -186 -122q-18 -35 -32.5 -85.5t-22.5 -123.5zM965 565l4 -49l340 135q92 37 92 97q0 37 -35 102l-18 29q-53 76 -140 75q-47 0 -87 -20.5t-77 -69.5q-80 -100 -79 -299z" />
<glyph unicode="&#x178;" horiz-adv-x="997" d="M-117 1475h283l14 -29l23 -43l37 -72l26 -49l70 -117l211 -370l219 370l59 101l11 18l26 45l39 74l23 45l14 27h176l-27 -39l-20 -33l-31 -47l-47 -74l-65 -100l-11 -19l-305 -510v-342v-57l2 -61l2 -60l2 -61l2 -35l2 -37h-245l2 39l2 35l2 49l4 70l2 83v35v336 l-301 516l-14 25l-60 94l-45 70l-33 49l-22 35zM197 1677q0 80 61 101q35 10 55 10q49 0 78 -31t29 -80q0 -80 -64 -102q-29 -10 -32 -10h-23q-47 0 -75.5 30.5t-28.5 81.5zM575 1677q0 80 62 101q35 10 55 10q49 0 78 -31t29 -80q0 -80 -64 -102q-29 -10 -33 -10h-22 q-47 0 -76 30.5t-29 81.5z" />
<glyph unicode="&#x2c6;" horiz-adv-x="555" d="M8 1139q133 141 215 313h109l41 -76q76 -135 174 -237h-141l-130 204l-126 -204h-142z" />
<glyph unicode="&#x2dc;" horiz-adv-x="567" d="M-12 1276q59 29 155 29q35 0 52 -2q51 -10 94 -17l49 -8q20 -2 49 -5t53 -3q72 0 127 30l6 -126l-16 -7l-16 -6q-49 -20 -105 -20q-14 0 -31.5 2t-27.5 2l-72 10l-35 4l-49 8l-49 7q-37 0 -73 -1.5t-62 -7.5l-43 -14z" />
<glyph unicode="&#x2000;" horiz-adv-x="940" />
<glyph unicode="&#x2001;" horiz-adv-x="1880" />
<glyph unicode="&#x2002;" horiz-adv-x="940" />
<glyph unicode="&#x2003;" horiz-adv-x="1880" />
<glyph unicode="&#x2004;" horiz-adv-x="626" />
<glyph unicode="&#x2005;" horiz-adv-x="470" />
<glyph unicode="&#x2006;" horiz-adv-x="313" />
<glyph unicode="&#x2007;" horiz-adv-x="313" />
<glyph unicode="&#x2008;" horiz-adv-x="235" />
<glyph unicode="&#x2009;" horiz-adv-x="376" />
<glyph unicode="&#x200a;" horiz-adv-x="104" />
<glyph unicode="&#x2010;" horiz-adv-x="593" d="M47 469v172h500v-172h-500z" />
<glyph unicode="&#x2011;" horiz-adv-x="593" d="M47 469v172h500v-172h-500z" />
<glyph unicode="&#x2012;" horiz-adv-x="593" d="M47 469v172h500v-172h-500z" />
<glyph unicode="&#x2013;" horiz-adv-x="1071" d="M92 694v156h887v-156h-887z" />
<glyph unicode="&#x2014;" horiz-adv-x="919" d="M47 471v191h825v-191h-825z" />
<glyph unicode="&#x2018;" horiz-adv-x="342" d="M59 999q4 23 12.5 62t16.5 72q47 180 143 342h113q-74 -154 -74 -328q0 -78 15 -148h-226z" />
<glyph unicode="&#x2019;" horiz-adv-x="342" d="M-2 999q74 154 74 326q0 80 -15 150h226q-20 -125 -64.5 -245t-107.5 -231h-113z" />
<glyph unicode="&#x201a;" horiz-adv-x="342" d="M-2 -254q74 152 74 324q0 76 -15 145h226q-43 -252 -172 -469h-113z" />
<glyph unicode="&#x201c;" horiz-adv-x="614" d="M59 999q4 23 12.5 62t16.5 72q47 180 143 342h113q-74 -154 -74 -328q0 -78 15 -148h-226zM334 999q6 45 10 66q12 45 16 68q51 182 146 342h110q-74 -154 -73 -328q0 -70 16 -148h-225z" />
<glyph unicode="&#x201d;" horiz-adv-x="614" d="M-2 999q74 154 74 326q0 80 -15 150h226q-20 -125 -64.5 -245t-107.5 -231h-113zM272 999q72 150 72 326q0 80 -14 150h225q-43 -254 -172 -476h-111z" />
<glyph unicode="&#x201e;" horiz-adv-x="614" d="M-2 -254q74 152 74 324q0 76 -15 145h226q-43 -252 -172 -469h-113zM272 -254q72 145 72 324q0 76 -14 145h225q-39 -244 -172 -469h-111z" />
<glyph unicode="&#x2022;" horiz-adv-x="745" d="M96 737q0 117 80 197t197 80t196.5 -80t79.5 -197t-80 -196.5t-196 -79.5q-117 0 -197 79.5t-80 196.5z" />
<glyph unicode="&#x2026;" horiz-adv-x="1269" d="M82 109q0 55 37 92t92 37t92 -37t37 -92t-37 -92t-92 -37t-92 37t-37 92zM506 109q0 55 37 92t92 37t92 -37t37 -92t-37 -92t-92 -37t-92 37t-37 92zM930 109q0 55 37 92t92 37t92 -37t37 -92t-37 -92t-92 -37t-92 37t-37 92z" />
<glyph unicode="&#x202f;" horiz-adv-x="376" />
<glyph unicode="&#x2039;" horiz-adv-x="481" d="M59 496v84q80 111 156 235l61 111h146l-205 -383l203 -389h-148q-86 170 -213 342z" />
<glyph unicode="&#x203a;" horiz-adv-x="479" d="M59 154l205 387l-205 385h144q59 -113 125 -211l92 -137v-80q-119 -162 -215 -344h-146z" />
<glyph unicode="&#x205f;" horiz-adv-x="470" />
<glyph unicode="&#x2122;" horiz-adv-x="1492" d="M96 1372v103h445v-103h-166v-635h-115v635h-164zM516 737l141 756h62l205 -467q16 -41 24 -69.5t8 -59.5q0 61 33 129l205 467h61l142 -756h-115l-74 430l-4 23l-2 18q-2 23 -2 35t4 37l-20 -72l-10 -26l-3 -11l-194 -450h-41l-195 450l-4 15l-8 24l-20 70q4 -33 4 -45 q-2 -18 -2 -27l-2 -18l-4 -23l-74 -430h-115z" />
<glyph unicode="&#x25fc;" horiz-adv-x="1044" d="M0 0v1044h1044v-1044h-1044z" />
</font>
</defs>
</svg>
