<?xml version="1.0" standalone="no"?>
<!DOCTYPE svg PUBLIC "-//W3C//DTD SVG 1.1//EN" "http://www.w3.org/Graphics/SVG/1.1/DTD/svg11.dtd" >
<svg xmlns="http://www.w3.org/2000/svg">
<metadata></metadata>
<defs>
<font id="miserably_loseregular" horiz-adv-x="1312" >
<font-face units-per-em="2048" ascent="1638" descent="-410" />
<missing-glyph horiz-adv-x="569" />
<glyph horiz-adv-x="0" />
<glyph unicode="&#xd;" horiz-adv-x="0" />
<glyph unicode=" "  horiz-adv-x="569" />
<glyph unicode="&#x09;" horiz-adv-x="569" />
<glyph unicode="&#xa0;" horiz-adv-x="569" />
<glyph unicode="!" horiz-adv-x="480" d="M0 1560l64 48h16q152 0 176 -304l80 -512l-16 -48l16 -272q0 -236 -128 -336h-48l-16 16l-16 48h-16l16 160v192q0 256 -128 1008zM96 -184q76 128 272 128q72 -28 112 -96v-64q-72 -128 -96 -128q-288 8 -288 96v64z" />
<glyph unicode="&#x22;" horiz-adv-x="859" d="M113 905q12 548 142 775l88 32l60 -28l24 -66l-120 -767l-44 -16zM513 905q12 548 142 775l88 32l60 -28l24 -66l-120 -767l-44 -16z" />
<glyph unicode="&#x26;" horiz-adv-x="1121" d="M65 1126q0 95 20 187q26 110 95 192q77 92 179 113q105 20 177 -110q54 -97 54 -233q0 -64 -16 -184q-10 -77 -51 -264q-36 -172 -43 -264q-3 -38 48 -79q41 -31 85 -62q79 85 107 262q5 33 -43 38q-56 8 -64 38q-3 11 -3 21q0 69 72 100q97 33 195 66q115 39 192 39 q38 0 76 -11q18 -15 37.5 -31.5t14.5 -37.5q-16 -69 -113 -105q-136 -48 -159 -66q8 -105 -46 -246q-84 -225 -87 -230q128 -98 305 -261q18 -13 15 -46q0 -33 -15 -54q-31 -13 -67 -13q-82 0 -156 57q-54 46 -172 132q-7 -10 -130 -196q-79 -123 -161 -185q-34 -25 -85 -25 q-56 0 -113 25q-89 39 -89 200q0 46 8 105q15 110 56 268q33 133 69 266q-192 287 -192 594zM288 1126q0 -128 46 -263q2 48 25 179q21 113 21 177q0 71 -21 130q-2 5 -7 8q-28 0 -49 -90q-15 -66 -15 -141zM321 10q0 -53 26 -94q10 -15 20 -15q28 0 74 109q67 156 72 167 q18 23 18 43q0 28 -41 59q-54 38 -61 49q-36 -80 -70 -159q-38 -95 -38 -159z" />
<glyph unicode="'" horiz-adv-x="430" d="M113 905q12 548 142 775l88 32l60 -28l24 -66l-120 -767l-44 -16z" />
<glyph unicode="(" horiz-adv-x="805" d="M88 228q0 248 100 614q13 49 146 400q43 115 87 233q59 128 148 179q21 13 54 13q44 0 79.5 -18t35.5 -41q0 -11 -5 -18q-351 -674 -412 -1091q-23 -166 -23 -294q0 -343 169 -507q18 -18 87 -35q54 -18 64 -52q18 -56 -36 -64q-26 -2 -49 -2q-135 0 -238 102 q-207 208 -207 581z" />
<glyph unicode=")" horiz-adv-x="787" d="M25 -417q-5 26 8 41q430 453 427 1077q0 518 -251 922q-5 8 -5 15q0 34 38.5 59.5t71.5 25.5q39 0 67 -28q297 -292 297 -899q0 -189 -31 -448q-51 -437 -438 -831q-15 -16 -43 -16q-54 0 -123 49q-15 10 -18 33z" />
<glyph unicode="," horiz-adv-x="539" d="M0 -219q198 510 398 679h94l47 -47v-70l-375 -679h-47z" />
<glyph unicode="-" d="M0 846v93q0 53 187 117l235 -23l820 47l70 -94v-47q0 -140 -1007 -140h-258z" />
<glyph unicode="." horiz-adv-x="336" d="M0 104v32q48 224 192 224q88 0 144 -96v-128q0 -76 -208 -144q-72 28 -128 112z" />
<glyph unicode="/" horiz-adv-x="683" d="M116 126l158 668l37 55l108 345q108 295 274 377l45 -17l7 -25l-6 -66l15 -5l-88 -195l-88 -240q-116 -320 -338 -1304l-82 -38l-15 6q-143 51 -27 439z" />
<glyph unicode="0" horiz-adv-x="826" d="M2 486q0 218 95 464q61 156 133 215q107 87 243 87q95 0 159 -54q79 -69 120 -141q36 -61 47.5 -130t21.5 -136q8 -51 8 -102q0 -287 -197 -512q-159 -182 -313 -172q-120 8 -202 108q-115 143 -115 373zM220 522q0 -182 87 -315q12 -20 30 -20q23 0 90 72 q197 212 197 430q0 64 -15.5 126.5t-25.5 124.5q-18 69 -66 99q-36 21 -54 21q-21 0 -49 -28q-194 -203 -194 -510z" />
<glyph unicode="1" horiz-adv-x="482" d="M106 269q0 130 23 395t23 393q0 164 -26 297q-2 18 14.5 41t37.5 31q105 36 154.5 -36t55.5 -251q5 -179 -16 -507q-20 -356 -20 -507q0 -105 5 -196q5 -64 -46 -64q-156 0 -172 69q-33 148 -33 335z" />
<glyph unicode="2" horiz-adv-x="876" d="M2 8q61 148 210 417q151 279 210 415q36 79 74 161q41 100 41 164q0 107 -54 107q-30 0 -72.5 -70t-78.5 -134q-5 -11 -5 -24q0 -12 14 -48t14 -56q0 -26 -20.5 -48t-48.5 -22q-36 0 -138 98q-33 30 -33 82q0 61 46 146q112 207 338 266q28 7 53 7q118 0 154 -107 q23 -74 23 -156q0 -126 -61 -292q-62 -138 -121 -277q-33 -76 -130 -250q-87 -151 -123 -256q41 -3 230 -3q141 0 228 -23q72 -21 72 -100q0 -17 -8 -33q-20 -46 -120 -59q-85 -10 -205 -10q-156 3 -197 0q-77 -5 -95 -5q-153 0 -197 110z" />
<glyph unicode="3" horiz-adv-x="850" d="M7 -512q-5 77 87 134q133 82 154 107q184 225 240 330q93 174 93 376q0 51 -6 108q-7 87 -81 94q-75 8 -305 -51q-13 21 -77 67q-49 36 -49 66q0 26 23 57q131 158 374 489q-43 5 -125 -16q-95 -23 -131 -23q-77 0 -125 59q-16 18 -18 51v57q23 5 330 76q92 21 169 21 q159 0 174 -97q3 -21 3 -39q0 -120 -131 -269q-192 -222 -210 -250q80 -13 162 -26q97 -26 143 -95q102 -153 102 -299q0 -110 -59 -249q-12 -28 -128 -258q-87 -174 -309 -420q-85 -94 -159 -94q-23 0 -46 13q-31 15 -61.5 34t-33.5 47z" />
<glyph unicode="4" horiz-adv-x="961" d="M0 87q0 21 56 123q92 169 251 526t256 534q26 61 58 125t103 64q88 0 93 -59t5 -115q0 -148 -40 -426t-40 -424q0 -64 6 -123q161 0 202 -64q23 -36 7 -69q-15 -36 -69 -41q-41 0 -84 -2q-56 -3 -64 -39q-23 -122 -28 -332q-5 -284 -8 -332.5t-64 -59.5q-97 0 -115 51 q-23 67 -23 146q0 59 18 179.5t18 184.5q0 61 -13 117q-23 3 -49 3q-54 0 -164 -23t-161 -23q-49 0 -92 15q-59 23 -59 64zM315 236q43 2 110 23q82 25 100 28q0 71 6.5 221t6.5 211q-64 -117 -126 -238q-69 -138 -97 -245z" />
<glyph unicode="5" horiz-adv-x="878" d="M41 635q7 287 215 801q15 39 74 39q82 0 97 -59q26 -13 59 -13q46 0 146 34.5t151 34.5q67 0 115 -44q28 -40 18 -89q-84 -72 -264 -113q-210 -51 -281 -89q-95 -246 -115 -407q381 -113 419 -341q18 -113 18 -225q0 -460 -271 -760q-46 -51 -90 -51q-20 0 -38 13 q-36 18 -69 33q-41 25 -46 69q-8 67 46 92q82 41 113 92q151 238 151 517q0 159 -62 282q-31 61 -125 69q-139 10 -154 15q-110 41 -107 100z" />
<glyph unicode="6" horiz-adv-x="821" d="M32 387q0 89 20 189q77 356 210 596q162 290 180 318q117 171 263 235q23 11 41 11q36 0 113 -67q15 -13 15 -38q0 -51 -36 -64q-87 -28 -158 -100q-223 -223 -382 -712q34 0 94 31t96 31q23 0 46 -11q189 -76 222 -253q8 -38 8 -79q0 -144 -100 -279q-84 -118 -220 -202 q-38 -23 -79 -23q-51 0 -161 61q-172 97 -172 356zM234 443q0 -54 16 -146q20 -128 61 -128q13 0 26 8q89 43 153 135t64 190q0 38 -21.5 83t-55.5 45q-20 0 -68.5 -29.5t-74.5 -29.5q-31 0 -54 31q-46 -57 -46 -159z" />
<glyph unicode="7" horiz-adv-x="940" d="M20 371q0 21 28 44q69 56 200 77q161 23 200 38q15 87 38 322q18 205 46 318q-28 5 -61 5q-67 0 -159 -28q-82 -31 -161 -59q-6 8 -70 61q-46 36 -46 72q0 15 8 33q72 49 195 75q181 38 204 43t110 31q75 20 118 20q72 0 103 -56q-8 -105 -64 -412q-52 -259 -44 -420 q31 -5 101.5 13t98.5 18q66 0 97 -62q5 -12 5 -25q0 -36 -82 -90q-48 -31 -128 -43q-92 -16 -117 -26q-21 -87 -52 -389q-25 -240 -76 -371q-77 -31 -134 26q-20 84 -20 189t23 263q20 134 41 264q-21 3 -41 3q-49 0 -123 -21q-105 -31 -120 -33q-13 20 -65.5 58.5 t-52.5 61.5z" />
<glyph unicode="8" horiz-adv-x="909" d="M37 105q-3 115 58 253q59 113 118 228q16 34 121 179q76 105 81 185q6 84 -28 238q-38 171 -41 243q-2 108 57 177q33 38 74 38q13 0 45 -6.5t50 -6.5q41 0 79 26q28 20 69 20q79 0 126.5 -62.5t47.5 -136.5q0 -69 -43 -167q-44 -79 -85 -161q-79 -161 -133 -248 q64 -159 120 -418q26 -120 26 -166q0 -67 -26 -125q0 -3 -33 -95q-18 -51 -43 -77q-57 -56 -210 -140q-62 -34 -136 -34q-82 0 -156 41q-133 75 -138 215zM223 166q0 -69 47 -130q20 -28 53 -28q54 0 128 76q64 62 110 141q29 49 29 110q0 44 -18 110q-13 57 -29 111 q-7 35 -43 112q-87 -123 -172 -248q-105 -154 -105 -254zM536 1295q10 -74 38 -94q8 15 44 76q20 34 20 57q0 18 -10 38q-26 54 -62 54q-23 0 -30 -23q-10 -39 0 -108z" />
<glyph unicode="9" horiz-adv-x="870" d="M39 878q0 146 117 341q128 212 313 212q25 0 51 -5q38 -26 80.5 -51.5t85.5 -25.5q16 0 31 3q82 -103 100 -287q2 -159 7 -317q18 -466 -286 -1009q-62 -110 -126 -139.5t-130 -29.5q-90 0 -164 49q-82 54 -69 102q5 23 36 23q12 0 41.5 -6t42.5 -6q113 -5 195 120 q48 72 105 230q76 218 94 276q46 162 46 297q0 59 -7 118q-62 -61 -77 -120q-26 -3 -82 -36t-95 -33q-169 5 -243 100q-66 81 -66 194zM248 870q0 -69 29 -115q61 16 133 87q153 190 158 343q3 11 0 26q-5 20 -5 25q-10 -7 -25 -7q-13 0 -36 9t-33 9q-21 0 -26 -36 q-82 -46 -179 -259q-16 -33 -16 -82z" />
<glyph unicode=":" horiz-adv-x="336" d="M0 254v32q48 224 192 224q88 0 144 -96v-128q0 -76 -208 -144q-72 28 -128 112zM0 1004v32q48 224 192 224q88 0 144 -96v-128q0 -76 -208 -144q-72 28 -128 112z" />
<glyph unicode="?" horiz-adv-x="890" d="M0 1462v70q0 62 375 141q515 -84 515 -305q0 -345 -515 -702q-32 -97 -117 -141h-71q-35 0 -70 94q0 191 375 421q140 125 140 235h24q0 140 -305 140q-135 -14 -210 -70h-24zM305 10l164 187h23q87 0 117 -281q-91 -117 -187 -117h-24l-93 94v117z" />
<glyph unicode="@" horiz-adv-x="1272" d="M62 -97q-15 156 87 340q67 115 223 302q110 133 213 133q46 0 87 -30q28 -16 56 -31t26 -54q-3 -46 -23 -217q-21 -162 -21 -241q0 -122 44 -143q56 -28 151 199q92 218 102 384q5 64 5 118q0 207 -69 351q-77 164 -197 171q-59 5 -116.5 -21.5t-110 -49.5t-152.5 -136 q-87 -100 -143 -100q-72 0 -72 49q0 33 36 82q266 371 514 371q182 0 356 -225q138 -177 138 -479q0 -141 -30 -310q-62 -343 -223 -519q-84 -95 -177 -95q-82 0 -147 60t-93 142q-54 -58 -105 -117q-67 -64 -131 -64q-20 0 -43 5q-98 28 -116 36q-64 30 -69 89zM283 77 q0 -64 43 -64q61 0 138 125.5t67 222.5v26q-44 10 -146 -108t-102 -202z" />
<glyph unicode="A" horiz-adv-x="1161" d="M-106 380q0 192 304 192q64 124 144 736q48 288 224 288h64q224 -240 224 -848l48 -16q176 64 336 80q76 -32 80 -64v-32q0 -36 -432 -208q16 -320 80 -608q-20 -64 -80 -96h-32q-128 0 -128 288l-32 272v32l-48 16q-288 -56 -288 -176l-16 -448l32 -96l-80 -96h-80 l-96 96l32 576l-80 -16h-80q-96 64 -96 128zM438 636l16 -16h32q144 0 176 96l-32 144l16 48q-64 288 -96 288h-16z" />
<glyph unicode="B" horiz-adv-x="944" d="M0 1224l24 256v24l-24 92q36 120 164 120q36 0 144 -188l184 44h120q128 0 164 -92v-164l-96 -352l140 -48q164 -85 164 -337q0 -168 -73 -411h-19q-276 -492 -516 -492h-48q-280 0 -280 400l48 140l-24 68l24 448l-24 164h24q-24 208 -96 328zM284 896l44 -48 q188 264 188 376v68h-68q-124 0 -164 -92v-304zM308 308l44 -324q424 168 424 676l-24 24h-72q-240 0 -372 -376z" />
<glyph unicode="C" horiz-adv-x="896" d="M0 368q8 376 272 928q188 240 304 256q320 -28 320 -256v-16q0 -76 -144 -96l-112 64q-260 0 -384 -752v-144q0 -160 144 -208q284 104 328 192l16 -8q108 -24 108 -84q0 -68 -128 -180h-4q-224 -160 -400 -160q-320 112 -320 464z" />
<glyph unicode="D" horiz-adv-x="1256" d="M0 -48q0 104 128 144l-16 352v416l16 64q0 44 -128 160q0 52 112 288q16 224 176 224h16l96 -112l16 -16q160 36 264 42q21 1 43 1q87 0 189 -19q128 -24 256 -152l16 -16h1q9 0 43 -72q28 -60 28 -152q0 -32 -4 -68q-12 -140 -100 -364q-116 -168 -240 -320 q-516 -492 -560 -592l-112 -16q-240 80 -240 192v16zM320 848l32 -656h-16l32 -48q344 272 592 704q48 72 48 256q0 104 -272 160q-416 0 -416 -256v-160z" />
<glyph unicode="E" horiz-adv-x="1049" d="M-67 1200v64q180 184 720 288q232 48 528 64q192 -24 192 -144q-84 -80 -128 -80h-144q-220 0 -640 -144q-104 -8 -160 -512l32 -32q256 112 584 408l148 96v-4q56 -80 56 -136l-20 -96l-112 -92h-16q-572 -480 -672 -480v-32q0 -208 48 -208h16q448 200 448 272 q188 148 206 180q5 10 16 10q24 0 74 -52q22 -23 22 -51q0 -63 -110 -151q-440 -464 -720 -464q-256 56 -256 416l16 96l-16 112l32 256l-16 128l48 208q-176 36 -176 80z" />
<glyph unicode="F" horiz-adv-x="989" d="M0 1500q0 52 112 112l256 -16q244 0 752 112h240q176 0 176 -144v-16q-32 -64 -96 -64l-160 16q-268 -32 -640 -144q-192 0 -192 -160l-16 -128q0 -240 80 -240l320 112q0 51 46 51q44 0 130 -47q74 -41 74 -88q0 -64 -138 -140q-448 -124 -448 -192l128 -656 q-20 -80 -48 -80h-48q-144 0 -144 208q-60 160 -112 512l-80 80v64l32 128l-32 480v64q-192 40 -192 176z" />
<glyph unicode="G" horiz-adv-x="1032" d="M0 228v164q160 736 468 1100q200 164 280 164h24q140 -12 140 -68v-72q0 -60 -208 -116q-216 -220 -352 -588l24 -24h24l468 144h68q60 0 96 -188l-164 -912l68 -96v-68q-56 -120 -188 -120q-104 48 -116 96v420h-48l-280 -164q-228 0 -304 328zM236 276q44 -108 92 -120 q352 200 352 424h-72l-372 -260v-44z" />
<glyph unicode="H" horiz-adv-x="1244" d="M0 1320v16l48 48h64q176 -212 176 -544q28 0 48 -240h144q208 0 400 160v32l-32 144l16 128l-32 112q28 336 208 336h64q64 -32 64 -96q-80 -172 -96 -304l16 -96l-4 -192q148 93 208 93q22 0 32 -13q16 -20 16 -44q0 -32 -28 -68q-48 -64 -208 -176q64 -740 144 -1008 v-80l-64 -64h-48q-112 40 -112 176q-60 160 -112 736l-16 96l-16 16h-16l-496 -176v-32q0 -208 64 -432v-32q-40 -80 -128 -80q-96 0 -160 592q-96 56 -96 144l80 144z" />
<glyph unicode="I" horiz-adv-x="416" d="M0 1544v16q40 80 86 94t70 14t72.5 -14t80.5 -77q19 -37 19 -72q0 -25 -10 -49q-22 -58 -78 -88q-39 -20 -77 -20l-35 4q-128 32 -128 192zM16 90l16 258l76 696q20 112 20 170q0 56 110 118q25 14 48 14q78 0 130 -161q-160 -373 -160 -958v-92l16 -106v-17 q0 -123 -56 -184l-8 4l-16 -16h-48q-128 69 -128 274z" />
<glyph unicode="J" horiz-adv-x="848" d="M0 256l64 64h32q68 -36 192 -304q116 -64 176 -64q160 144 160 592v32q0 712 -144 848q44 192 112 192q208 -16 208 -128l-16 -160q32 -56 64 -672v-160l-16 -176l16 -16v-16q-124 -576 -368 -576q-372 0 -480 544z" />
<glyph unicode="K" horiz-adv-x="891" d="M0 1080l24 232l-24 140q0 400 188 400l92 -96l-44 -584q4 -92 44 -92q56 0 402 276q162 130 249 130q97 0 97 -166q-372 -304 -380 -304q-320 -208 -320 -288v-24q148 -304 376 -304q76 12 104 36q95 -50 95 -106q0 -66 -131 -142l-140 -24q-144 20 -280 120h-48v-72 l48 -348q-36 -96 -72 -96h-68q-96 0 -164 516l-40 492l16 184z" />
<glyph unicode="L" horiz-adv-x="914" d="M0 -8q0 164 96 624l32 272l112 460q64 52 128 52q108 -36 160 -112v-112q-112 -80 -112 -192q-56 -100 -128 -736q-20 0 -32 -128l64 -32q524 224 592 224h80q88 0 128 -80v-48q0 -60 -384 -176q0 -68 -480 -240q-256 0 -256 192v32z" />
<glyph unicode="M" horiz-adv-x="1408" d="M0 28l16 96l-16 96l16 160l-4 4l48 744q76 388 212 388q0 28 80 32q80 0 176 -400l128 -496h32l240 608q32 156 192 288h32q160 -20 160 -144q-48 -68 -48 -368v-320q12 -384 144 -848q-8 -28 -16 -64l-96 -64q-196 0 -240 800l-32 304q-64 0 -160 -416v-64l16 -144 q-68 -144 -160 -176h-16q-160 0 -224 384l-128 480q-36 0 -80 -704l32 -144q-36 -240 -128 -240q-176 0 -176 208z" />
<glyph unicode="N" horiz-adv-x="1232" d="M0 268l32 112l-16 96l32 368l28 248l16 224h4l176 104q220 0 240 -304q0 -240 288 -672h48q84 0 160 800v336q0 88 64 112h80l80 -96l-16 -112v-272l16 -64q-72 -696 -192 -912q-108 -128 -192 -128q-212 68 -416 448q0 48 -64 80q-48 -216 -64 -560q-72 -96 -160 -96 h-16q-88 0 -112 80l16 80z" />
<glyph unicode="O" horiz-adv-x="896" d="M0 516q0 336 32 528l-16 64q132 480 352 480l96 -16l16 16h16q368 -148 368 -432q32 0 32 -240q0 -220 -192 -592q-232 -416 -416 -416h-16q-128 0 -224 240q-36 204 -48 368zM224 548q0 -328 96 -368q104 0 240 320q128 248 128 448v64q0 180 -176 320h-64 q-208 -112 -208 -256l-16 -464v-64z" />
<glyph unicode="P" horiz-adv-x="912" d="M0 448l16 784q32 144 128 144l96 -16q260 144 432 144q240 -84 240 -288v-16q0 -220 -448 -688l-160 -240q0 -300 80 -496q-36 -144 -144 -144q-112 0 -160 80v96l16 16q-28 244 -52 304zM240 864l32 -192h32q352 324 352 560v16q-416 0 -416 -384z" />
<glyph unicode="Q" horiz-adv-x="998" d="M0 516v96q64 664 160 780q80 96 216 96q28 0 64 -4q180 -28 280 -184q144 -168 144 -352q-14 -249 -163 -505l107 -119l76 -68l16 -36q148 -136 284 -216l-52 -92q-40 -40 -84 -40q-56 0 -124 56q-124 95 -343 335q-73 -97 -165 -195l-112 -32h-16q-244 0 -288 480z M224 756l16 -176v-176q0 -112 80 -112q51 24 114 121q-116 136 -116 216q0 35 22 59q60 48 124 56l85 -114q36 78 75 174l16 160q-100 244 -160 256h-48q-176 -168 -176 -320z" />
<glyph unicode="R" horiz-adv-x="1169" d="M0 8l48 224l32 560l-4 312q80 121 205 121q29 0 60 -6l91 -91q224 160 288 160h32q240 -60 240 -352q0 -304 -352 -496v-32q332 -336 608 -336l16 -16v-32q0 -120 -160 -144h-96q-96 0 -624 336l-64 16l-16 -16v-144q-8 -272 -96 -272h-96q-112 76 -112 208zM432 632 l16 -16h16q288 148 288 304q-12 80 -48 80q-156 0 -272 -368z" />
<glyph unicode="S" horiz-adv-x="1437" d="M-67 16v48q0 132 176 176h32l48 -48l-32 -128q0 -136 416 -160q392 56 544 192l16 16v48q-1072 332 -1072 944q0 344 624 576l192 16h32q300 0 416 -288v-48q-52 -240 -112 -240h-16q-56 0 -80 256q-80 96 -208 96h-48q-444 -36 -576 -352v-96q0 -228 448 -512 q388 -176 592 -176l112 -96v-32q0 -336 -640 -496l-176 -16q-688 56 -688 320z" />
<glyph unicode="T" horiz-adv-x="1224" d="M60 1070q-13 33 -13 62q0 101 165 148l96 -16q352 32 352 160q132 128 208 128q96 0 96 -144l416 128q114 -41 114 -141q0 -55 -34 -127l-464 -116q-176 0 -176 -128v-32l-16 -240q32 -668 96 -912v-16q0 -128 -128 -128h-32q-128 44 -128 448l-48 592h-12l-4 252 q8 4 8 8q8 8 8 12v16h-16q-148 -8 -308 -48q-33 -15 -61 -15q-75 0 -119 109z" />
<glyph unicode="U" horiz-adv-x="916" d="M0 324v1032q48 92 144 92q116 -36 116 -164l-24 -304l24 -420v-72h24q352 304 352 796v48l-24 256q52 140 164 140q68 0 140 -140l-72 -560l-44 -424l-24 -700l92 -236l-92 -72h-72q-140 84 -140 284v444l-48 48q-192 -376 -352 -376h-44q-100 0 -120 328z" />
<glyph unicode="V" horiz-adv-x="787" d="M0 1284l16 16v16l-16 96h16l-16 16v16q0 320 96 320h64q96 -8 96 -48v-496q0 -176 112 -832q76 0 192 768v48l-16 48h16l-16 16v96q0 88 80 128h32q175 -18 190 -110l-10 -66l-20 -80q-96 -402 -96 -512q-176 -528 -176 -688l32 -80q-40 -240 -176 -240h-16 q-140 0 -288 944q-16 252 -96 624zM836 1316l10 66l2 -18z" />
<glyph unicode="W" horiz-adv-x="1408" d="M0 1272q0 48 176 96q112 -56 112 -128l-16 -272q0 -384 80 -640q104 128 224 624l-16 352q104 96 192 96q140 -60 144 -96v-16l-32 -128l32 -480l32 -160q44 40 256 560q140 252 240 272q96 -32 96 -64v-32q-203 -387 -208 -456q-146 -345 -208 -696q-48 -128 -128 -176 h-64q-168 0 -224 496h-16q-40 -12 -176 -432l-176 -80q-232 0 -320 1360z" />
<glyph unicode="X" horiz-adv-x="1056" d="M140 -96q-58 33 -58 111q0 111 118 313l40 36q67 118 128 220q-61 102 -128 220l-40 36q-118 202 -118 313q0 78 58 111q57 21 89 21q29 0 39 -17l164 -352l68 -117q131 204 224 317q101 128 205 128q49 0 99 -28l28 -72q-164 -160 -336 -396l-12 -48l-84 -116l84 -116 l12 -48q172 -236 336 -396l-28 -72q-50 -28 -99 -28q-105 0 -205 128q-93 113 -224 317l-68 -117l-164 -348q-10 -20 -42 -20t-86 20z" />
<glyph unicode="Y" horiz-adv-x="1037" d="M77 -112q112 448 154 526t86 210l-162 512q-104 240 -104 366q0 63 26 98q208 0 208 -160q96 -188 176 -448l16 -16h16q256 512 336 592l96 32h48q64 -32 64 -80t-224 -448q-160 -308 -160 -368v-96q-196 -168 -288 -496q-36 -352 -192 -352q-68 40 -96 128z" />
<glyph unicode="Z" horiz-adv-x="1521" d="M-74 1248q-1 8 -1 16q0 74 71 102l81 -9l124 43l115 -22l94 24l369 1l250 -7l224 4l1 -4l119 -166q1 -13 1 -26q0 -197 -283 -240q-239 -21 -645 -345l5 -48q7 -84 811 -90l334 29q10 1 19 1q72 0 98 -55l7 -79l-88 -88l-113 6l-271 -24l-63 -21q-699 11 -925 111 q-137 97 -144 180q49 218 410 454q48 4 74 71q-148 20 -352 20q-99 0 -211 -5q-102 63 -109 151z" />
<glyph unicode="a" horiz-adv-x="944" d="M-52 560q0 40 192 192q232 880 416 880h32q96 -64 96 -160l-16 -144l48 -496l32 -32q280 82 406 82q65 0 90 -22q25 -23 25 -50q0 -51 -85 -118h-32q-284 -40 -388 -164q0 -296 160 -704v-96q-12 -128 -112 -128q-132 0 -240 640q-20 0 -48 208h-16q-208 0 -208 -128v-64 l16 -64q0 -160 -192 -160l-124 32l-4 256q16 24 16 48v32zM396 720h48l48 32l-32 192h-16l-48 -176v-48z" />
<glyph unicode="b" horiz-adv-x="1076" d="M0 1212q40 0 140 280l116 24l164 -48l164 48h280q212 0 212 -188q0 -180 -212 -376v-44q96 0 188 -140v-120q0 -304 -748 -652h-96q-164 0 -164 160l72 120q-92 156 -92 280v444zM280 484l116 -188h24q328 196 328 352v24l-116 24h-24q-100 0 -328 -164v-48zM304 976 q0 -44 68 -44q156 0 376 280v24l-116 24h-24q-304 -60 -304 -212v-72z" />
<glyph unicode="c" horiz-adv-x="1034" d="M0 232v84q60 384 128 560t96 188q220 328 336 368h32q240 0 240 -144q0 -88 -256 -192q-336 -436 -336 -736v-16q20 -144 144 -144q512 336 632 824q47 17 81 17q90 0 91 -116q0 -41 -12 -97l-248 -404q-372 -464 -608 -464h-64q-256 108 -256 272z" />
<glyph unicode="d" horiz-adv-x="1140" d="M0 80l48 224l-12 144l100 920l8 8q176 112 432 128h32q232 0 400 -96q0 1 2 1q9 0 64 -57q62 -64 64 -270v-5q0 -204 -146 -437q-244 -344 -560 -672q-144 -112 -256 -112q-148 0 -176 224zM272 352q0 -56 64 -128q220 196 384 416q176 328 176 416v80q-84 112 -176 112 h-32q-304 0 -304 -128q-112 -360 -112 -672v-96z" />
<glyph unicode="e" horiz-adv-x="996" d="M-77 940q0 100 176 288q0 48 144 80l112 -64q476 92 768 192q64 0 128 -96v-48q0 -112 -832 -336q-144 -108 -144 -176v-128h32q400 116 623 288q94 -81 94 -164q0 -81 -89 -164q-612 -212 -612 -312l-16 -48q24 -176 64 -176h16q84 0 480 384q112 -72 112 -166 q0 -112 -156 -256q-288 -266 -500 -266h-32q-208 0 -208 336v96q-128 100 -128 176v48l80 96v192l8 188q-30 -13 -53 -13q-46 0 -67 49z" />
<glyph unicode="f" horiz-adv-x="914" d="M0 1500q0 52 112 112l256 -16q244 0 752 112h240q176 0 176 -144v-16q-32 -64 -96 -64l-160 16q-268 -32 -640 -144q-192 0 -192 -160l-16 -128q0 -240 80 -240l320 112q0 51 46 51q44 0 130 -47q74 -41 74 -88q0 -64 -138 -140q-448 -124 -448 -192l128 -656 q-20 -80 -48 -80h-48q-144 0 -144 208q-60 160 -112 512l-80 80v64l32 128l-32 480v64q-192 40 -192 176z" />
<glyph unicode="g" horiz-adv-x="1032" d="M0 228v164q160 736 468 1100q200 164 280 164h24q140 -12 140 -68v-72q0 -60 -208 -116q-216 -220 -352 -588l24 -24h24l468 144h68q60 0 96 -188l-164 -912l68 -96v-68q-56 -120 -188 -120q-104 48 -116 96v420h-48l-280 -164q-228 0 -304 328zM236 276q44 -108 92 -120 q352 200 352 424h-72l-372 -260v-44z" />
<glyph unicode="h" horiz-adv-x="964" d="M0 828l64 96l-32 400v80q-3 0 -5 -2l-13 501q56 61 114 61h80q40 0 80 -144q-32 -64 -32 -176v-64q0 -672 64 -672q288 64 288 176l-32 624q0 84 128 128q80 0 128 -80l-32 -384l16 -96v-96l4 -76l76 28q8 0 38 -38q28 -36 28 -89v-7q-2 -58 -130 -166l4 -112 q12 -988 108 -1300q-24 -80 -112 -80h-32q-92 0 -144 800l16 16q-16 340 -64 608q-304 -68 -304 -160l-16 -96q48 -432 144 -544l16 -16q0 -80 -80 -128h-32q-220 0 -256 816q-60 0 -80 192z" />
<glyph unicode="i" horiz-adv-x="480" d="M0 1416v64q72 128 96 128q288 -8 288 -96v-64q-76 -128 -272 -128q-72 28 -112 96zM144 472l16 48l-16 272q0 236 128 336h48l16 -16l16 -48h16l-16 -160v-192q0 -256 128 -1008l-64 -48h-16q-152 0 -176 304z" />
<glyph unicode="j" horiz-adv-x="848" d="M0 256l64 64h32q68 -36 192 -304q116 -64 176 -64q160 144 160 592v32q0 712 -144 848q44 192 112 192q208 -16 208 -128l-16 -160q32 -56 64 -672v-160l-16 -176l16 -16v-16q-124 -576 -368 -576q-372 0 -480 544z" />
<glyph unicode="k" horiz-adv-x="1028" d="M0 1080l24 232l-24 140q0 400 188 400l92 -96l-44 -584q4 -92 44 -92q56 0 402 276q162 130 249 130q97 0 97 -166q-372 -304 -380 -304q-320 -208 -320 -288v-24q148 -304 376 -304q76 12 104 36q95 -50 95 -106q0 -66 -131 -142l-140 -24q-144 20 -280 120h-48v-72 l48 -348q-36 -96 -72 -96h-68q-96 0 -164 516l-40 492l16 184z" />
<glyph unicode="l" horiz-adv-x="712" d="M0 1124v48l16 16l-16 16v112q28 144 160 144q112 -28 112 -96l-64 -208q0 -288 32 -480l-16 -48q68 -448 112 -448h32l346 287q110 -72 110 -143q0 -63 -88 -124q-356 -324 -432 -324q-272 0 -272 656q-28 0 -32 592z" />
<glyph unicode="m" horiz-adv-x="1408" d="M0 28l16 96l-16 96l16 160l-4 4l48 744q76 388 212 388q0 28 80 32q80 0 176 -400l128 -496h32l240 608q32 156 192 288h32q160 -20 160 -144q-48 -68 -48 -368v-320q12 -384 144 -848q-8 -28 -16 -64l-96 -64q-196 0 -240 800l-32 304q-64 0 -160 -416v-64l16 -144 q-68 -144 -160 -176h-16q-160 0 -224 384l-128 480q-36 0 -80 -704l32 -144q-36 -240 -128 -240q-176 0 -176 208z" />
<glyph unicode="n" horiz-adv-x="1002" d="M7 779v62q0 455 99 463l64 16q156 0 416 -800l16 -16h16q80 0 160 848l96 64q128 -64 128 -176q-24 -256 -48 -256l16 -16v-16l-144 -816q0 -176 -160 -176h-48q-160 88 -160 112v16l16 96l-96 224h-32v-224l-32 -160l32 -304l-80 -64h-112q-112 0 -144 672v448z" />
<glyph unicode="o" horiz-adv-x="864" d="M0 428l16 16l-16 80l14 358l56 329q33 50 74 129q60 48 112 48h16q52 0 112 -48h144q336 -48 336 -384v-48q0 -220 -128 -560q-136 -256 -224 -336l-128 -48h-32q-240 0 -352 464zM208 620q0 -196 128 -400h48q108 0 224 432l48 272q0 156 -208 176q-240 0 -240 -480z " />
<glyph unicode="p" horiz-adv-x="928" d="M0 1496q0 88 128 160q176 -16 176 -96l-48 -272l16 -16h16q196 272 400 272q240 0 240 -416q-60 -280 -176 -436q-96 -156 -288 -284q-144 -72 -144 -112l16 -192l-16 -80l48 -384v-64q-24 -64 -112 -64h-64l-144 128q0 80 48 160l-16 80l16 112l-32 208v192v80v192 l16 128q-32 512 -80 704zM320 616l16 -16h32q100 0 212 164q108 158 108 335v13q0 144 -80 144q-288 -208 -288 -640z" />
<glyph unicode="q" horiz-adv-x="998" d="M0 516v96q64 664 160 780q80 96 216 96q28 0 64 -4q180 -28 280 -184q144 -168 144 -352q-14 -249 -163 -505l107 -119l76 -68l16 -36q148 -136 284 -216l-52 -92q-40 -40 -84 -40q-56 0 -124 56q-124 95 -343 335q-73 -97 -165 -195l-112 -32h-16q-244 0 -288 480z M224 756l16 -176v-176q0 -112 80 -112q51 24 114 121q-116 136 -116 216q0 35 22 59q60 48 124 56l85 -114q36 78 75 174l16 160q-100 244 -160 256h-48q-176 -168 -176 -320z" />
<glyph unicode="r" horiz-adv-x="1154" d="M0 1312l16 64l-16 112q28 72 96 112h64q96 0 128 -96l-16 -240l16 -16q373 284 623 284q31 0 61 -4q136 -46 136 -230q0 -71 -20 -162q-248 -308 -480 -496q0 -84 396 -136l208 32l40 -60l-36 -128q-108 -84 -180 -84l-652 120h-80v-16l32 -432q-32 -96 -128 -96 q-160 0 -160 128v240l-16 16l-4 424q4 20 4 40v368q0 188 -32 256zM288 736h32v-16q416 264 512 544h-32q-384 -160 -480 -416z" />
<glyph unicode="s" horiz-adv-x="1116" d="M-45 168v80q16 48 96 48q172 -160 400 -160q348 128 400 224v32q-420 72 -656 272q-112 204 -112 368v32q0 324 560 560h96q320 0 368 -256v-32q0 -40 -112 -80l-160 96h-144q-352 -104 -352 -256l-32 -64q0 -352 736 -448q108 -43 141 -70t47 -144q-417 -458 -940 -458 q-336 84 -336 256z" />
<glyph unicode="t" horiz-adv-x="1124" d="M0 1300q24 68 80 96h80q232 0 368 128l240 -16h160l64 16q388 -16 388 -112t-388 -128q-272 0 -272 -80l-16 -176l16 -48l-16 -224l16 -320l-16 -64q0 -316 128 -432v-32q0 -112 -112 -112h-48q-92 36 -160 288l-16 144v32l16 64l-16 112v288q0 216 -32 352l16 80l-48 48 l-288 -64h-32q-112 72 -112 160z" />
<glyph unicode="u" horiz-adv-x="916" d="M0 324v1032q48 92 144 92q116 -36 116 -164l-24 -304l24 -420v-72h24q352 304 352 796v48l-24 256q52 140 164 140q68 0 140 -140l-72 -560l-44 -424l-24 -700l92 -236l-92 -72h-72q-140 84 -140 284v444l-48 48q-192 -376 -352 -376h-44q-100 0 -120 328z" />
<glyph unicode="v" horiz-adv-x="848" d="M0 1284l16 16v16l-16 96h16l-16 16v16q0 320 96 320h64q96 -8 96 -48v-496q0 -176 112 -832q76 0 192 768v48l-16 48h16l-16 16v96q0 88 80 128h32q175 -18 190 -110l-10 -66l-20 -80q-96 -402 -96 -512q-176 -528 -176 -688l32 -80q-40 -240 -176 -240h-16 q-140 0 -288 944q-16 252 -96 624zM836 1316l10 66l2 -18z" />
<glyph unicode="w" horiz-adv-x="1236" d="M0 1272l20 40q31 68 116 68q46 0 108 -20l8 -8q56 -80 56 -136l-48 -240v-80l32 -400v-48v-48h16l16 96q128 620 128 816l-16 64q64 128 160 128q164 0 208 -656q56 -176 80 -176q48 88 128 832l96 32h48q80 -40 80 -128l-8 -44l-24 -148q-40 -384 -96 -800 q-104 -336 -176 -336h-112q-92 0 -208 512h-32q-124 -736 -208 -736l-96 -32q-160 0 -160 240q-32 0 -56 288t-24 304v56q0 56 -4 96z" />
<glyph unicode="x" horiz-adv-x="961" d="M45 -96q-58 33 -58 111q0 111 118 313l40 36q67 118 128 220q-61 102 -128 220l-40 36q-118 202 -118 313q0 78 58 111q57 21 89 21q29 0 39 -17l164 -352l68 -117q131 204 224 317q101 128 205 128q49 0 99 -28l28 -72q-164 -160 -336 -396l-12 -48l-84 -116l84 -116 l12 -48q172 -236 336 -396l-28 -72q-50 -28 -99 -28q-105 0 -205 128q-93 113 -224 317l-68 -117l-164 -348q-10 -20 -42 -20t-86 20z" />
<glyph unicode="y" horiz-adv-x="960" d="M0 1624v48q36 80 160 80q104 0 256 -656l16 -16h16l208 336q88 116 224 144q80 -24 80 -112q0 -60 -176 -272l-224 -608q-120 -244 -208 -784v-160q-56 -96 -160 -96q-112 48 -112 144q60 72 128 624q41 0 89 319q3 24 7 49q-14 0 -28 28l-116 420z" />
<glyph unicode="z" horiz-adv-x="1521" d="M-74 1248q-1 8 -1 16q0 74 71 102l81 -9l124 43l115 -22l94 24l369 1l250 -7l224 4l1 -4l119 -166q1 -13 1 -26q0 -197 -283 -240q-239 -21 -645 -345l5 -48q7 -84 811 -90l334 29q10 1 19 1q72 0 98 -55l7 -79l-88 -88l-113 6l-271 -24l-63 -21q-699 11 -925 111 q-137 97 -144 180q49 218 410 454q48 4 74 71q-148 20 -352 20q-99 0 -211 -5q-102 63 -109 151z" />
<glyph unicode="&#xad;" d="M0 846v93q0 53 187 117l235 -23l820 47l70 -94v-47q0 -140 -1007 -140h-258z" />
<glyph unicode="&#x2000;" horiz-adv-x="982" />
<glyph unicode="&#x2001;" horiz-adv-x="1964" />
<glyph unicode="&#x2002;" horiz-adv-x="982" />
<glyph unicode="&#x2003;" horiz-adv-x="1964" />
<glyph unicode="&#x2004;" horiz-adv-x="654" />
<glyph unicode="&#x2005;" horiz-adv-x="491" />
<glyph unicode="&#x2006;" horiz-adv-x="327" />
<glyph unicode="&#x2007;" horiz-adv-x="327" />
<glyph unicode="&#x2008;" horiz-adv-x="245" />
<glyph unicode="&#x2009;" horiz-adv-x="392" />
<glyph unicode="&#x200a;" horiz-adv-x="109" />
<glyph unicode="&#x2010;" d="M0 846v93q0 53 187 117l235 -23l820 47l70 -94v-47q0 -140 -1007 -140h-258z" />
<glyph unicode="&#x2011;" d="M0 846v93q0 53 187 117l235 -23l820 47l70 -94v-47q0 -140 -1007 -140h-258z" />
<glyph unicode="&#x2012;" d="M0 846v93q0 53 187 117l235 -23l820 47l70 -94v-47q0 -140 -1007 -140h-258z" />
<glyph unicode="&#x2013;" horiz-adv-x="1024" d="M0 846v93q0 53 146 117l183 -23l640 47l55 -94v-47q0 -140 -786 -140h-201z" />
<glyph unicode="&#x2014;" horiz-adv-x="2048" d="M0 846v93q0 53 292 117l367 -23l1280 47l109 -94v-47q0 -140 -1572 -140h-403z" />
<glyph unicode="&#x2018;" horiz-adv-x="430" d="M113 1618l24 66l60 28l88 -32q130 -227 142 -775l-150 -70l-44 16z" />
<glyph unicode="&#x2019;" horiz-adv-x="430" d="M113 905q12 548 142 775l88 32l60 -28l24 -66l-120 -767l-44 -16z" />
<glyph unicode="&#x201c;" horiz-adv-x="859" d="M113 1618l24 66l60 28l88 -32q130 -227 142 -775l-150 -70l-44 16zM513 1618l24 66l60 28l88 -32q130 -227 142 -775l-150 -70l-44 16z" />
<glyph unicode="&#x201d;" horiz-adv-x="859" d="M113 905q12 548 142 775l88 32l60 -28l24 -66l-120 -767l-44 -16zM513 905q12 548 142 775l88 32l60 -28l24 -66l-120 -767l-44 -16z" />
<glyph unicode="&#x2026;" horiz-adv-x="1424" d="M0 104v32q48 224 192 224q88 0 144 -96v-128q0 -76 -208 -144q-72 28 -128 112zM400 136q0 208 208 208l16 16h16q72 -28 112 -96v-96q-20 -160 -144 -160q-208 0 -208 128zM1024 232v32q0 96 112 176h96q160 0 192 -208q0 -144 -192 -144q-80 0 -208 144z" />
<glyph unicode="&#x202f;" horiz-adv-x="392" />
<glyph unicode="&#x205f;" horiz-adv-x="491" />
<glyph unicode="&#x25fc;" horiz-adv-x="1285" d="M0 0v1285h1285v-1285h-1285z" />
</font>
</defs>
</svg>
